<svg width="314" height="325.5" viewBox="0 0 340 356" fill="none" xmlns="http://www.w3.org/2000/svg">
<path d="M116.763 271.961C119.884 270.856 123.082 269.979 126.332 269.339L126.725 270.781C126.769 270.951 126.873 271.099 127.017 271.199C127.162 271.299 127.337 271.343 127.512 271.324L140.376 269.826C143.916 261.755 150.414 249.527 150.507 249.339C150.414 246.287 150.507 243.721 150.507 240.8C143.148 243.534 129.534 248.721 122.418 252.036C122.257 252.139 122.133 252.292 122.062 252.47C121.992 252.648 121.979 252.843 122.025 253.029C122.025 253.029 122.156 253.497 122.325 254.171C118.841 254.171 108.411 253.665 105.902 256.043C105.511 256.587 105.32 257.248 105.358 257.916C105.209 260.5 106.501 280.575 108.561 286.474C109.628 289.564 111.875 289.227 113.411 286.268C115.188 281.813 116.329 277.128 116.8 272.354C116.8 272.111 116.744 272.129 116.763 271.961ZM114.609 255.201C116.894 255.014 117.606 255.051 122.512 254.901C123.392 258.234 125.208 265.088 126.145 268.59C122.841 269.102 119.58 269.859 116.388 270.856C115.394 265.691 114.799 260.457 114.609 255.201Z" fill="black"/>
<path d="M289.119 91.3073C289.587 90.6519 288.987 89.8092 288.482 89.1538C289.915 87.6809 291.503 86.3683 293.22 85.24C296.117 83.796 298.766 81.8998 301.066 79.622C302.021 78.6295 303.819 76.5884 303.145 75.3899C302.471 74.1914 301.272 74.1165 299.643 74.8093C300.348 74.0685 300.926 73.2135 301.347 72.2813C301.871 70.8206 300.635 69.6409 297.957 70.727C298.931 69.1727 299.156 67.5435 297.508 66.757C296.178 66.1203 294.231 67.6371 293.107 68.6296C290.901 70.5574 288.83 72.6347 286.909 74.8468C285.729 72.3749 283.856 69.5285 281.516 70.4274C279.175 71.3262 280.991 75.3524 282.19 77.5434L277.939 80.4834C277.296 80.1365 276.571 79.9748 275.842 80.0153C271.01 80.8392 248.819 97.7305 246.572 97.7305C244.849 97.7305 220.243 85.9328 198.97 82.5246C198.929 82.3969 198.853 82.2839 198.75 82.1978C198.647 82.1116 198.522 82.0561 198.389 82.0377C194.678 81.4044 190.917 81.1225 187.153 81.1951C187.04 81.2029 186.929 81.2352 186.829 81.29C186.727 81.3452 186.642 81.4215 186.573 81.5134H185C184.625 79.9966 183.239 76.4947 182.753 75.1464C184.026 74.0416 185.786 73.4798 186.704 71.7008C188.389 68.4049 188.314 62.6746 187.846 59.0043C189.962 57.3938 190.018 54.8095 189.532 52.1691C189.344 51.1017 188.764 48.686 187.865 48.0868C187.359 47.7497 186.292 48.0868 185.374 48.4238C184.457 46.289 184.457 47.2628 184.831 46.4014C185.006 46.0044 185.107 45.5795 185.131 45.1467C186.123 45.4463 188.183 43.4613 187.472 40.8396C187.099 39.9013 186.642 38.9987 186.105 38.143C186.367 37.5063 186.929 36.7386 185.168 34.3978C184.41 33.5799 183.425 33.0062 182.341 32.7498H181.479C180.858 31.8479 179.945 31.1867 178.895 30.8772C177.31 30.4727 175.627 30.7083 174.213 31.5326C173.839 31.8135 173.539 32.188 173.165 32.4502C172.317 31.9361 171.347 31.6644 170.356 31.6644C169.365 31.6644 168.394 31.9361 167.547 32.4502C167.051 32.6446 166.6 32.9374 166.22 33.3106C165.841 33.6841 165.54 34.1301 165.337 34.6225C164.419 34.3058 163.446 34.1839 162.478 34.2646C161.512 34.3453 160.571 34.6266 159.719 35.0906C156.484 36.8448 154.064 39.7957 152.978 43.3115C152.948 43.8417 152.948 44.3731 152.978 44.9033H152.772C149.963 44.4913 146.386 51.1579 149.251 56.3451C149.588 56.9631 150.019 57.5436 150.431 58.2177C151.629 60.0904 151.161 60.6522 153.839 62.9368C154.625 63.611 154.757 63.5548 155.243 63.9668C155.73 64.3787 155.543 64.1727 155.824 65.2214C155.977 65.8391 156.252 66.4206 156.631 66.9317C157.01 67.4427 157.488 67.8734 158.034 68.1989C158.234 70.0307 159.014 71.7501 160.262 73.1052C160.657 73.5479 161.119 73.9265 161.629 74.2288C161.767 74.3065 161.921 74.3514 162.079 74.3599C162.64 77.843 163.333 82.3748 163.633 84.3036L161.966 85.2025C159.786 86.0799 157.666 87.0997 155.618 88.2549C155.457 88.3662 155.344 88.5327 155.3 88.7231C153.315 89.7717 151.442 90.7642 150.375 91.4009C135.506 100.221 93.2778 158.367 92.8471 161.026C92.7997 161.179 92.7997 161.341 92.8471 161.494C93.4524 162.46 94.1899 163.336 95.0381 164.097C94.7769 164.575 94.4627 165.019 94.1017 165.426C90.3565 167.88 84.7389 171.531 81.7239 174.79C81.5121 174.979 81.3535 175.219 81.2636 175.487C81.1734 175.756 81.1546 176.043 81.2095 176.32C81.2643 176.598 81.3906 176.857 81.5762 177.073C81.7617 177.287 81.9997 177.449 82.2667 177.542C82.8284 177.73 82.9224 177.674 86.5741 175.67C85.5703 176.55 84.7494 177.619 84.1584 178.816C83.9149 179.846 84.8512 180.445 86.031 180.258C86.6946 180.083 87.3265 179.805 87.9036 179.434C87.5655 179.955 87.3861 180.564 87.3861 181.185C87.3861 181.806 87.5655 182.414 87.9036 182.936C89.7763 185.295 94.6826 177.861 97.2669 176.026C98.3155 177.355 99.7384 180.464 102.004 179.64C103.971 178.909 101.817 174.584 102.004 173.329C102.766 172.597 103.58 171.921 104.439 171.307C105.883 172.377 107.535 173.137 109.289 173.535C112.379 173.535 144.626 140.988 147.079 138.386C146.199 146.663 141.76 182.187 142.697 189.097C143.127 192.224 150.637 192.673 153.802 192.842C152.846 215.314 152.21 249.358 152.041 249.714C147.079 260.407 145.73 263.328 144.064 266.568C141.03 272.373 128.259 293.796 126.817 298.665C126.611 299.433 126.592 299.732 127.397 301.155C124.984 303.693 122.745 306.39 120.694 309.227C119.664 311.099 124.083 328.552 127.21 334.732C127.922 336.118 129.083 338.252 130.637 338.198C135.319 338.028 135.3 321.211 135.169 316.511C135.168 316.366 135.115 316.227 135.019 316.118C135.868 314.851 136.793 313.638 137.79 312.485C138.386 312.896 139.012 313.257 139.663 313.571C140.3 313.852 141.011 313.365 141.536 312.934C147.772 308.028 181.404 266.118 188.614 246.343C191.891 237.317 196.254 224.845 197.49 216.006C198.246 210.418 198.316 204.758 197.696 199.153C197.696 199.073 197.728 198.997 197.784 198.941C197.84 198.884 197.916 198.853 197.996 198.853C198.076 198.853 198.152 198.884 198.208 198.941C198.264 198.997 198.295 199.073 198.295 199.153C199.234 204.789 199.416 210.527 198.839 216.212C197.453 228.478 187.771 254.04 182.603 263.44C187.06 262.616 196.123 260.819 200.505 259.508C215.112 255.07 228.595 241.83 229.775 226.961C230.157 219.956 230.157 212.937 229.775 205.932C229.648 196.261 228.392 186.639 226.029 177.262C229.999 175.108 233.632 172.58 234.812 170.258C237.34 165.295 230.655 136.738 229.194 128.723C237.19 129.603 250.804 131.195 257.153 126.232C264.418 120.389 280.111 103.948 289.119 91.3073ZM134.158 315.481C130.787 313.44 126.068 308.59 125.356 304.788C126.124 303.815 126.929 302.916 127.678 301.905C130.216 305.778 133.381 309.202 137.041 312.035C136.013 313.126 135.05 314.277 134.158 315.481ZM283.033 78.0677C283.129 78.0061 283.2 77.9094 283.226 77.7981C283.254 77.6864 283.238 77.5686 283.182 77.4685C282.527 76.2513 280.561 71.9629 281.928 71.4761C282.714 71.1764 283.407 71.6633 283.988 72.3187C284.874 73.4433 285.564 74.7096 286.029 76.064C286.063 76.174 286.127 76.2727 286.215 76.3493C286.3 76.4259 286.406 76.4774 286.519 76.4988C286.633 76.5199 286.75 76.5097 286.859 76.4695C286.967 76.4293 287.062 76.3602 287.134 76.27C289.006 74.1914 293.388 69.4536 295.86 68.1802C297.733 67.2064 298.182 69.0042 293.594 73.1989C292.541 74.0024 291.528 74.8587 290.561 75.7644C290.507 75.8379 290.478 75.9265 290.478 76.0174C290.478 76.1079 290.507 76.1965 290.561 76.27C290.561 76.7569 290.954 77.3 291.628 76.7943C293.256 75.3653 294.977 74.0456 296.778 72.8431C297.697 72.19 298.766 71.7777 299.886 71.6446C299.324 73.3674 294.1 78.049 293.65 78.5734C293.508 78.7014 293.421 78.8798 293.409 79.0708C293.398 79.2618 293.46 79.4501 293.585 79.5948C293.711 79.7395 293.888 79.8294 294.078 79.845C294.27 79.8607 294.459 79.8008 294.605 79.6782C296.684 78.3299 300.317 75.1839 301.572 75.652C302.826 76.1202 299.1 79.6033 298.163 80.4273C292.789 85.0901 294.175 82.0939 287.958 88.4234C285.252 85.4589 282.145 82.8872 278.725 80.7831L283.033 78.0677ZM201.666 167.636C201.348 165.052 200.955 162.262 200.468 159.359L201.273 158.292C205.018 153.479 206.142 145.82 205.786 139.809C207.79 148.591 209.382 157.224 210.599 165.801L201.666 167.636ZM173.82 103.517C168.895 99.7716 160.974 93.311 156.367 88.8916L163.858 85.1463C170.737 91.5712 176.624 98.98 181.329 107.131C188.525 120.349 193.862 134.496 197.191 149.172L170.487 111.401L173.97 104.172C174.017 104.061 174.026 103.938 174 103.821C173.973 103.703 173.911 103.597 173.82 103.517ZM186.479 82.2812C186.591 82.4872 187.884 85.24 189.85 90.0526C189.85 90.2586 189.494 94.9402 189.326 96.5882C186.935 95.6409 184.681 94.3815 182.621 92.8429C183.033 91.2137 184.887 83.8167 185.018 82.1501L186.479 82.2812ZM179.831 102.393C179.962 102.056 180.093 101.607 180.243 101.082L181.498 101.738C182.21 102.206 181.929 100.783 182.565 104.903C182.565 105.596 182.753 106.363 182.79 107.206C181.929 105.652 180.861 103.985 179.85 102.393H179.831ZM178.783 100.82C175.245 95.8023 171.217 91.148 166.76 86.9253L180.861 93.0489C180.318 94.341 179.532 98.2923 178.801 100.82H178.783ZM193.183 111.794C191.311 106.682 189.869 100.97 189.157 99.472C189.199 99.0049 189.199 98.5347 189.157 98.0675C189.429 98.1683 189.711 98.2313 190 98.2548C190.181 98.2569 190.355 98.1935 190.493 98.0764C190.632 97.9596 190.722 97.7969 190.749 97.6181C190.899 97.0001 191.142 93.8728 191.179 93.1799C196.627 106.934 201.175 121.027 204.794 135.371C194.213 112.861 195.842 119.378 193.202 111.794H193.183ZM208.67 147.543C204.4 127.075 196.891 101.551 188.352 82.637C191.489 82.6387 194.619 82.8893 197.715 83.386C199.307 97.6181 197.977 97.1312 199.045 97.693C200.112 98.2548 206.535 100.839 207.49 101.232C207.397 102.674 208.745 143.91 208.689 147.543H208.67ZM187.116 49.2853C188.093 51.4156 188.436 53.7813 188.108 56.1017C187.955 56.6924 187.643 57.229 187.203 57.6519C186.763 58.0751 186.216 58.3679 185.619 58.498C185.025 58.628 184.404 58.5902 183.828 58.3887C183.252 58.1871 182.745 57.8296 182.359 57.3563C181.465 55.4742 180.794 53.4946 180.356 51.4575C180.861 50.8021 186.254 49.4912 187.116 49.2853ZM161.348 68.0117C160.665 67.7001 159.964 67.4254 159.251 67.1877C158.772 66.9909 158.346 66.6872 158.003 66.2997C157.659 65.9123 157.41 65.4516 157.272 64.9524C157.135 64.4536 157.113 63.93 157.21 63.4213C157.306 62.913 157.517 62.4332 157.828 62.0192C159.007 61.0267 160.075 61.0829 161.049 62.5623C161.667 63.7046 161.648 63.7982 161.929 63.9106C162.01 63.946 162.097 63.964 162.185 63.963C162.272 63.962 162.36 63.9422 162.439 63.9051C162.519 63.868 162.591 63.8139 162.647 63.7471C162.704 63.6804 162.747 63.6021 162.771 63.5173C163.049 62.3454 163.093 61.1299 162.903 59.9406C162.678 58.6485 162.64 52.9182 162.678 52.7309C163.226 53.0193 163.839 53.1551 164.457 53.1242C167.846 52.9931 168.52 51.2515 169.869 49.8283C171.423 49.9781 171.741 50.7272 173.502 49.8283C174.326 49.3595 175.083 48.78 175.749 48.1055C176.287 48.3258 176.807 48.589 177.303 48.892C178.425 49.4317 179.691 49.5975 180.914 49.3649C182.138 49.1324 183.255 48.5137 184.101 47.5999C184.307 47.9931 184.494 48.3864 184.663 48.7984C182.942 49.3326 181.322 50.1487 179.869 51.2141C179.55 51.6073 180.019 53.7421 180.131 54.2477C178.563 54.4452 177.044 54.9342 175.655 55.6897C175.374 54.7159 174.756 52.8994 173.783 52.3938C173.489 52.3043 173.177 52.3043 172.884 52.3938C171.198 52.656 165.15 54.4725 164.419 55.465C163.783 56.1578 165.599 61.5136 166.161 62.3937C168.315 65.727 174.625 64.7533 175.805 60.8582C176.097 59.5511 176.097 58.1953 175.805 56.8882C176.348 56.8882 177.977 56.3077 178.165 56.2515C179.457 59.1541 179.831 59.3226 181.329 62.4499C181.123 62.6185 180.786 62.8994 180.505 63.0866C179.176 63.9668 178.895 63.8169 178.97 64.1915C178.992 64.2657 179.04 64.3297 179.106 64.3709C179.171 64.4124 179.249 64.4284 179.326 64.4162C180.112 64.3038 180.88 64.09 181.61 63.7795C182.047 63.6164 182.408 63.2957 182.621 62.8806C183.146 61.7009 180.243 57.2627 179.101 55.9331C179.326 55.9331 179.85 55.5586 180.243 55.3526C180.768 57.45 181.123 59.0979 183.146 59.9219C183.731 60.1425 184.354 60.2429 184.978 60.2174C185.602 60.1915 186.214 60.04 186.779 59.772C187.078 63.0679 187.022 68.4236 185.449 71.345C184.644 72.8618 182.659 73.4423 181.386 74.697C181.011 75.0528 181.254 75.5584 181.386 76.1015C183.464 81.8879 183.502 81.8692 183.389 82.6183C182.838 85.7272 182.069 88.7935 181.086 91.7942C180.618 91.5882 175.356 88.798 165.056 84.7905C164.738 82.6744 163.034 71.3824 162.491 69.3038C162.528 68.5735 162.434 68.4049 161.348 67.918V68.0117ZM174.457 60.3713C173.858 62.4125 171.03 63.2926 169.007 62.7308C166.985 62.169 166.854 61.1391 165.899 58.7046C165.451 57.7748 165.142 56.784 164.981 55.7646C165.599 55.0904 172.359 53.7047 173.202 53.5736C174.384 55.5957 174.828 57.9651 174.457 60.2777V60.3713ZM101.181 172.805C100.469 173.498 101.424 175.763 101.574 177.73C101.574 177.898 101.574 178.629 101.461 178.685C100.431 179.022 99.4762 177.468 98.8957 176.531C98.3152 175.595 97.7347 174.321 96.8171 174.659C94.9444 175.539 90.5999 181.306 88.8958 181.906C88.0344 180.258 92.9598 175.557 93.1283 175.295C93.2005 175.175 93.2383 175.036 93.2376 174.897C93.2369 174.757 93.1978 174.618 93.1246 174.5C93.051 174.379 92.9462 174.283 92.8215 174.217C92.6966 174.153 92.5566 174.125 92.4167 174.134C92.0796 174.134 91.8546 174.434 91.3302 174.902C89.7354 176.458 87.9101 177.759 85.9183 178.76C87.7242 176.687 89.6568 174.73 91.7048 172.898C91.8062 172.794 91.8774 172.664 91.9111 172.524C91.9111 172.524 91.5178 171.531 90.7501 171.924C89.6639 172.524 84.3827 175.576 82.7164 176.363C82.4917 176.213 82.6228 175.988 82.7164 175.763C85.3565 172.524 91.162 168.591 94.7197 166.101C95.1375 165.67 95.4851 165.178 95.7497 164.64C98.2141 166.932 100.843 169.042 103.615 170.951C102.761 171.511 101.947 172.13 101.181 172.805ZM144.757 189.827C144.345 189.565 144.045 189.321 143.989 188.984C142.959 181.344 148.689 138.048 148.596 136.344C148.596 136.244 148.576 136.145 148.536 136.053C148.499 135.961 148.441 135.878 148.37 135.808C148.298 135.738 148.213 135.683 148.12 135.647C148.028 135.61 147.928 135.593 147.828 135.595C146.873 135.595 148.558 135.595 124.701 158.441C123.128 159.921 111.105 171.419 109.102 172.187C106.349 171.981 95.9931 163.722 94.3077 161.119C97.5661 154.528 137.079 100.296 150.749 92.0002C151.798 91.3635 153.596 90.371 155.562 89.3223C156.242 89.9638 156.974 90.546 157.753 91.0639C162.097 95.1837 168.146 100.315 172.734 104.172L169.157 111.27C169.103 111.364 169.074 111.47 169.074 111.579C169.074 111.687 169.103 111.794 169.157 111.888C198.202 153.554 197.771 153.086 197.958 153.086C199.82 162.714 200.978 172.464 201.423 182.261C201.423 184.902 201.423 184.677 201.535 184.49C201.648 184.303 201.535 184.621 201.535 184.621C197.003 189.565 152.154 194.171 144.757 189.827ZM248.276 127.786C239.793 128.966 230.205 127.206 228.351 127.131C227.321 122.139 225.268 117.414 222.321 113.255C222.276 113.194 222.211 113.153 222.136 113.139C222.062 113.125 221.986 113.14 221.922 113.18C221.858 113.22 221.811 113.283 221.791 113.356C221.772 113.429 221.78 113.506 221.816 113.573C222.902 115.783 226.535 125.314 227.434 127.637C227.153 128.535 235.898 164.696 233.426 169.565C231.217 173.966 218.351 179.509 213.707 181.1C212.79 170.675 211.289 160.309 209.213 150.052C209.85 144.659 209.026 112.599 208.782 100.745C208.774 100.608 208.729 100.475 208.65 100.362C208.57 100.249 208.461 100.162 208.333 100.109L199.925 96.5694C199.887 92.1194 199.605 87.6744 199.082 83.255C220.074 86.8879 244.531 98.8915 246.572 98.9102C249.531 98.9102 271.516 82.0565 276.066 81.3823C278.089 81.064 286.778 88.6482 287.789 90.7455C278.913 103.142 263.314 119.434 256.085 125.071C253.757 126.628 251.068 127.563 248.276 127.786Z" fill="black"/>
<path d="M172.529 56.6259C172.506 56.503 172.459 56.3859 172.39 56.2813C172.322 56.1765 172.233 56.0862 172.13 56.0158C172.025 55.9456 171.91 55.8963 171.786 55.8707C171.665 55.8452 171.539 55.8442 171.415 55.8677C171.292 55.8908 171.175 55.9381 171.07 56.0069C170.966 56.0757 170.875 56.1639 170.805 56.2674C170.735 56.3709 170.685 56.4873 170.66 56.6099C170.635 56.7325 170.633 56.8588 170.657 56.9817C171.031 58.8544 171.106 59.2851 171.93 59.2851C172.086 59.2854 172.239 59.2473 172.376 59.1737C172.514 59.0998 172.631 58.9933 172.715 58.8629C172.801 58.7328 172.852 58.5833 172.866 58.4281C172.879 58.2728 172.854 58.1169 172.792 57.9742C172.735 57.6746 172.567 56.7944 172.529 56.6259ZM178.26 69.0228C179.477 69.3786 180.638 68.7981 180.6 68.4985C180.563 68.1988 180.6 68.3486 178.953 67.7307C177.848 67.3187 176.63 65.858 176.2 66.0827C175.769 66.3075 176.424 67.506 176.574 67.7307C176.975 68.3384 177.568 68.7936 178.26 69.0228ZM212.51 51.2327C210.057 61.5135 208.259 70.24 207.96 71.9816C207.76 72.7391 207.722 73.5304 207.847 74.3036C208.84 76.4197 221.667 80.5957 223.297 79.7717C224.926 78.9478 229.158 69.416 234.083 59.5847C237.1 59.681 240.119 59.4614 243.09 58.9293C246.219 58.3552 249.264 57.3927 252.154 56.0641C258.484 53.1428 265.412 40.6336 266.349 34.3415C267.051 27.5101 265.604 20.63 262.21 14.6601C246.499 -12.5869 200.413 2.07588 204.158 32.3378C205.227 39.2621 208.11 45.7809 212.51 51.2327ZM223.933 73.5359C223.933 73.8355 223.596 73.798 222.061 73.5359C218.919 73.1412 215.878 72.1698 213.091 70.6707C211.78 69.9591 211.424 69.8093 211.555 69.491C211.686 69.1726 211.967 69.285 213.99 69.8468C214.177 69.8468 219.982 71.7194 221.649 72.2999C223.802 73.2737 223.933 73.2737 223.933 73.5359ZM223.596 43.068C225.595 43.1715 227.588 42.7592 229.383 41.8695C231.049 42.6771 232.853 43.1664 234.701 43.3114C231.555 49.1728 225.169 61.1202 223.109 67.4872L215.169 65.2962C217.042 60.6895 221.181 49.9031 223.559 43.068H223.596ZM222.941 41.5137C221.542 41.3026 220.252 40.6387 219.269 39.624C218.284 38.6091 217.66 37.2996 217.491 35.8958C216.967 32.1505 219.364 27.9558 222.978 28.9483C225.244 29.5662 225.525 31.364 225.132 33.6299C224.795 35.2778 223.578 39.4163 222.903 41.4388L222.941 41.5137ZM228.034 37.0194C228.234 35.794 228.695 34.6254 229.383 33.5924C229.71 33.0293 230.19 32.5693 230.765 32.2649C231.341 31.9602 231.99 31.8233 232.641 31.8696C234.027 32.2816 234.626 34.9033 233.484 36.5512C232.385 38.0081 231.02 39.2413 229.458 40.1841C228.919 39.8688 228.492 39.3966 228.231 38.8307C227.97 38.2652 227.888 37.6329 227.997 37.0194H228.034ZM210.825 13.2181C219.214 3.12456 235.001 -0.882895 246.405 3.27437C252.6 5.40104 257.811 9.70706 261.068 15.3904C264.297 21.0712 265.678 27.6156 265.019 34.1168C264.158 39.9407 257.529 52.0379 251.705 54.7158C246.38 57.1448 240.57 58.3232 234.72 58.1615C234.083 58.1615 233.409 58.1615 233.166 58.6109C232.061 60.8581 230.038 65.2026 228.053 69.285C226.681 68.6231 225.261 68.0718 223.802 67.637C225.975 61.4199 232.828 49.2102 236.087 43.2927C238.91 43.5344 241.748 43.0445 244.326 41.8695C245.022 41.5028 245.6 40.9451 245.991 40.2614C246.382 39.5781 246.571 38.7973 246.533 38.0108C246.496 37.2247 246.233 36.4654 245.781 35.8219C245.327 35.1787 244.699 34.6779 243.971 34.3789C241.068 32.9557 238.465 36.3639 236.948 39.2291C236.536 39.9781 236.068 40.8583 235.544 41.8508C234.029 41.7513 232.535 41.4425 231.106 40.9332C232.529 39.9322 233.793 38.7201 234.851 37.3377C235.444 36.4422 235.744 35.3851 235.711 34.3119C235.677 33.2383 235.311 32.2019 234.664 31.3453C234.155 30.7545 233.448 30.3694 232.676 30.2625C231.903 30.1556 231.118 30.3344 230.469 30.7647C229.156 31.5707 228.106 32.7378 227.441 34.1263C226.778 35.5148 226.529 37.0657 226.724 38.5924C226.927 39.4541 227.392 40.2325 228.053 40.8208C226.825 41.3295 225.506 41.5845 224.177 41.5699C224.926 39.3602 226.143 35.3714 226.461 33.7422C226.661 32.8134 226.705 31.858 226.593 30.9145C226.447 30.1049 226.071 29.3541 225.509 28.7528C224.949 28.1512 224.225 27.7253 223.428 27.5251C218.877 26.2329 215.525 31.2704 216.181 35.9707C216.365 37.655 217.089 39.2349 218.242 40.4763C219.395 41.7176 220.918 42.5542 222.585 42.862C220.188 49.6035 216.443 60.4836 214.57 65.1277L210.45 64.0603C213.091 50.802 213.409 51.1203 213.035 50.9518C208.779 45.5269 206.057 39.0602 205.151 32.2254C204.709 28.8363 204.987 25.3923 205.964 22.1177C206.941 18.8428 208.598 15.8105 210.825 13.2181ZM236.817 41.9631C238.128 39.5849 240.75 34.3789 243.296 35.6523C243.805 35.8576 244.25 36.1981 244.579 36.637C244.91 37.0759 245.113 37.5965 245.169 38.1429C245.132 41.4388 240.001 42.0193 236.742 41.9631H236.817ZM308.502 50.2215C310.758 48.8943 313.424 48.4411 315.992 48.9481C318.814 48.9985 321.509 50.1265 323.525 52.1009C325.543 54.0754 326.724 56.7461 326.833 59.566C325.138 58.5816 323.154 58.2112 321.217 58.5173C316.517 58.9293 310.374 61.476 311.198 66.0078C311.873 69.7531 316.816 69.2475 320.562 68.2363C324.307 67.2251 327.283 65.3899 328.052 61.7757C332.601 65.0902 333.67 70.8954 333.857 76.5695C333.857 76.6489 333.888 76.7251 333.946 76.7813C334 76.8375 334.079 76.8692 334.157 76.8692C334.235 76.8692 334.314 76.8375 334.368 76.7813C334.426 76.7251 334.457 76.6489 334.457 76.5695C334.586 70.2213 333.445 64.0041 328.257 60.3899C328.311 58.7641 328.032 57.1445 327.443 55.6286C326.854 54.1132 325.958 52.7332 324.821 51.5722C323.681 50.4115 322.317 49.4942 320.813 48.8756C319.309 48.2572 317.693 47.9505 316.067 47.9743C313.467 47.5947 310.818 48.1381 308.577 49.5099C307.884 49.8469 308.202 50.3526 308.502 50.2215ZM325.58 63.6483C323.464 66.4198 317.472 67.8618 314.7 67.3936C313.67 67.2251 312.828 66.7943 312.603 65.7269C311.929 61.9817 318.389 59.9405 322.247 59.8094C323.817 59.6889 325.383 60.0906 326.704 60.9517C326.561 61.9309 326.176 62.8584 325.58 63.6483ZM299.925 28.3303C301.929 25.8584 300.581 21.5514 294.981 21.5327C292.809 21.5327 291.76 23.7424 291.91 25.8584C292.247 30.8958 297.921 30.746 299.925 28.3303ZM293.221 25.7648C293.221 24.5289 293.802 22.9184 295.094 22.9371C298.109 22.9371 299.494 24.3416 299.494 25.8959C299.42 29.4352 292.978 31.2703 293.221 25.7648ZM292.453 238.066C275.993 231.493 268.352 263.309 254.907 290.65C254.821 291.798 254.86 292.955 255.019 294.096C255.019 296.961 255.338 315.93 257.004 318.084C257.454 318.945 259.345 318.084 260.225 317.541C267.7 312.914 274.744 307.624 281.274 301.736C281.33 301.672 281.37 301.599 281.397 301.517C281.422 301.436 281.431 301.352 281.423 301.268C284.907 296.305 297.959 270.463 301.124 257.504C303.333 248.328 301.142 241.493 292.453 238.066ZM298.333 261.849C289.521 260.719 281.001 257.936 273.221 253.646C277.603 245.351 283.015 235.894 291.948 239.452C301.891 243.403 301.685 251.587 298.333 261.792V261.849ZM267.173 310.537C266.597 310.055 265.969 309.64 265.3 309.301C262.769 308.015 259.846 307.733 257.117 308.515C256.929 306.286 255.862 291.792 255.862 291.661C269.888 296.792 265.562 294.564 279.457 301.474C277.997 302.859 272.51 306.698 267.173 310.5V310.537ZM276.835 256.343C278.661 257.34 280.537 258.247 282.453 259.058C278.16 265.8 274.368 272.849 271.105 280.144C267.959 286.717 268.072 286.68 264.869 293.852C262.997 293.253 261.124 292.691 259.251 292.129C261.274 288.103 275.656 258.665 276.835 256.306V256.343ZM265.6 294.039C271.686 283.122 277.884 269.545 283.202 259.302C285.075 260.088 286.948 260.725 288.82 261.287C287.828 263.159 284.925 268.141 284.157 269.583C283.39 271.025 275.693 286.193 275.15 287.354C274.289 289.227 271.929 294.451 271.199 296.118C269.289 295.275 267.454 294.639 265.525 294.002L265.6 294.039ZM271.873 296.361C273.015 294.283 277.716 285.556 278.296 284.433C279.176 282.691 288.989 262.635 289.532 261.474C291.255 261.961 293.071 262.373 294.232 262.598C290.805 271.961 280.937 289.994 277.379 298.889C274.139 297.373 273.409 296.998 271.798 296.324L271.873 296.361ZM273.015 254.19L276.367 256.062C269.612 267.566 263.728 279.559 258.764 291.942L255.956 291.081C266.836 267.897 267.341 264.864 272.94 254.152L273.015 254.19ZM280.731 300.519L277.903 299.17C280.955 293.178 290.506 277.803 294.869 262.729C295.918 262.916 296.948 263.085 297.94 263.216C293.127 276.056 287.35 288.514 280.656 300.481L280.731 300.519ZM222.061 312.672C222.807 312.054 223.34 311.218 223.585 310.28C223.83 309.342 223.776 308.351 223.428 307.447C223.268 306.143 222.671 304.93 221.731 304.011C220.792 303.092 219.567 302.519 218.259 302.39C216.951 302.259 215.638 302.577 214.536 303.292C213.433 304.007 212.606 305.077 212.192 306.324C209.795 304.77 207.192 303.122 204.701 301.549C206.574 299.058 212.08 300.163 212.641 302.204C212.654 302.284 212.698 302.356 212.762 302.402C212.827 302.449 212.908 302.469 212.988 302.457C213.067 302.444 213.137 302.401 213.186 302.337C213.233 302.271 213.253 302.19 213.241 302.11C212.96 298.852 206.181 296.942 203.447 300.781C201.031 299.301 198.035 297.504 195.525 296.137C197.679 294.264 202.492 295.313 203.016 297.26C203.041 297.327 203.088 297.382 203.15 297.418C203.211 297.452 203.284 297.465 203.353 297.451C203.423 297.437 203.486 297.399 203.531 297.343C203.575 297.289 203.598 297.218 203.596 297.148C203.353 294.114 197.08 292.073 194.233 295.406C193.041 294.738 191.786 294.186 190.488 293.758C190.251 293.66 189.99 293.632 189.737 293.679C189.485 293.726 189.25 293.844 189.065 294.021C184.327 299.919 168.353 315.238 160.975 317.017C160.79 317.045 160.615 317.121 160.468 317.238C160.321 317.355 160.209 317.508 160.14 317.683C160.072 317.858 160.05 318.048 160.078 318.232C160.108 318.418 160.184 318.593 160.301 318.739C161.921 320.384 163.776 321.779 165.807 322.878C163.934 324.751 162.473 326.436 161.387 327.653C160.825 328.252 160.526 339.713 161.013 342.243C161.084 342.488 161.245 342.702 161.462 342.842C163.822 344.453 194.215 357.598 197.323 355.838C199.402 354.657 224.214 328.833 224.608 328.046C225.207 326.811 225.001 318.571 224.963 315.275C224.814 314.283 222.96 313.215 222.061 312.672ZM162.136 337.411V333.234C169.908 336.979 187.698 344.619 194.439 346.754C196.162 347.316 196.312 347.241 197.211 346.754C202.361 343.458 220.544 322.972 223.877 319.844V323.796C213.765 333.928 196.593 351.681 196.274 350.67C194.421 350.557 163.747 338.16 162.136 337.411ZM221.593 306.361C222.265 307.496 222.627 308.788 222.641 310.107C222.635 310.526 222.532 310.938 222.34 311.313C222.148 311.686 221.873 312.011 221.536 312.26C219.963 311.211 216.986 309.264 213.465 306.979C215.394 303.178 219.682 303.122 221.518 306.361H221.593ZM161.668 318.346C169.645 315.987 184.795 301.38 189.889 295.051C191.114 295.392 192.297 295.876 193.409 296.492C191.537 299.976 193.54 303.796 194.252 303.253C194.645 302.953 193.934 302.841 193.821 301.006C193.773 299.665 194.077 298.335 194.701 297.148C197.286 298.496 200.319 300.256 202.885 301.736C201.312 305.238 203.203 308.702 203.859 308.196C204.514 307.691 203.559 307.803 203.447 305.968C203.401 304.765 203.631 303.566 204.121 302.466C206.761 304.021 209.458 305.631 211.93 307.148C211.549 308.081 211.398 309.092 211.488 310.096C211.58 311.099 211.911 312.067 212.454 312.916C212.479 312.947 212.509 312.975 212.545 312.995C212.579 313.014 212.618 313.028 212.657 313.033C212.697 313.037 212.738 313.036 212.777 313.025C212.816 313.014 212.852 312.997 212.885 312.972C212.916 312.947 212.944 312.917 212.963 312.881C212.983 312.847 212.997 312.808 213.002 312.767C213.006 312.728 213.005 312.688 212.994 312.649C212.983 312.61 212.966 312.572 212.941 312.541C212.604 311.797 212.438 310.987 212.454 310.171C212.47 309.354 212.668 308.552 213.035 307.822C217.398 310.481 220.918 312.71 222.005 313.44C221.799 313.627 202.267 331.005 195.619 336.175C191.256 335.031 168.353 323.664 161.668 318.346ZM162.38 328.777C170.863 332.522 190.132 341.211 194.57 342.056C195.338 342.205 195.638 342.26 197.098 341.099C203.334 336.101 223.615 314.882 223.802 315.107C223.811 315.163 223.811 315.219 223.802 315.275V319.02C219.626 322.372 196.406 346.754 196.031 345.593C194.158 345.593 163.728 333.179 162.174 332.485C162.136 331.698 162.305 329.601 162.38 328.777ZM196.48 354.582C194.608 355.651 166.087 344.058 162.267 341.698C162.124 340.503 162.055 339.304 162.061 338.103C170.263 342.147 194.121 352.222 196.312 352.13C199.514 351.96 222.154 326.473 223.765 324.694C223.784 325.651 223.688 326.606 223.484 327.541C223.166 328.159 197.716 353.891 196.48 354.582ZM41.3315 249.021C41.4626 251.025 41.5562 252.766 41.5562 254.396C41.5562 254.644 41.6549 254.882 41.8303 255.057C42.006 255.233 42.244 255.332 42.4925 255.332C42.7407 255.332 42.9791 255.233 43.1544 255.057C43.3301 254.882 43.4288 254.644 43.4288 254.396C43.4288 252.654 43.3352 250.931 43.2041 248.89C43.1867 248.642 43.0713 248.411 42.8834 248.247C42.6954 248.083 42.4506 248.002 42.2021 248.019C41.9539 248.036 41.7227 248.152 41.5592 248.339C41.3958 248.528 41.3141 248.773 41.3315 249.021ZM326.666 211.475C326.544 211.482 326.425 211.514 326.312 211.567C326.203 211.621 326.105 211.696 326.026 211.79C325.945 211.882 325.883 211.99 325.846 212.105C325.808 212.222 325.795 212.346 325.805 212.467C325.917 214.19 326.03 216.044 326.03 217.842C326.03 218.09 326.128 218.328 326.306 218.503C326.479 218.679 326.718 218.778 326.966 218.778C327.215 218.778 327.453 218.679 327.627 218.503C327.804 218.328 327.902 218.09 327.902 217.842C327.902 215.969 327.79 214.096 327.657 212.336C327.65 212.214 327.62 212.094 327.565 211.985C327.511 211.874 327.436 211.776 327.344 211.696C327.252 211.615 327.143 211.554 327.027 211.517C326.912 211.479 326.789 211.464 326.666 211.475ZM36.4813 244.358C36.7295 244.358 36.9679 244.26 37.1432 244.083C37.3189 243.909 37.4176 243.67 37.4176 243.422C37.4176 243.174 37.3189 242.935 37.1432 242.76C36.9679 242.584 36.7295 242.486 36.4813 242.486C34.2154 242.486 32.3241 242.654 30.4514 242.617C30.2012 242.617 29.9611 242.715 29.7827 242.89C29.604 243.065 29.5011 243.303 29.4964 243.553C29.4964 243.801 29.5951 244.04 29.7705 244.214C29.9462 244.391 30.1841 244.489 30.4327 244.489C32.3615 244.527 34.4776 244.452 36.4813 244.358ZM320.861 205.932C318.614 205.932 316.723 206.063 314.831 206.081C314.583 206.081 314.344 206.18 314.17 206.356C313.993 206.531 313.895 206.769 313.895 207.018C313.895 207.266 313.993 207.505 314.17 207.679C314.344 207.856 314.583 207.954 314.831 207.954C316.854 207.954 318.951 207.954 320.974 207.804C321.222 207.789 321.454 207.676 321.62 207.491C321.784 207.305 321.868 207.06 321.854 206.812C321.838 206.564 321.726 206.331 321.54 206.166C321.353 206 321.109 205.916 320.861 205.932ZM40.8259 232.785C40.9382 234.508 41.0506 236.362 41.0506 238.16C41.0553 238.406 41.1554 238.642 41.3301 238.817C41.5044 238.992 41.74 239.091 41.9869 239.096C42.2351 239.096 42.4734 238.998 42.6488 238.821C42.8245 238.647 42.9232 238.408 42.9232 238.16C42.9232 236.287 42.8109 234.414 42.6985 232.654C42.6811 232.406 42.5657 232.175 42.3778 232.011C42.1898 231.848 41.945 231.766 41.6965 231.784C41.4482 231.801 41.2171 231.916 41.0536 232.103C40.8902 232.292 40.8085 232.537 40.8259 232.785ZM327.395 201.606C327.395 199.733 327.283 197.86 327.153 196.1C327.136 195.852 327.021 195.621 326.833 195.457C326.646 195.294 326.401 195.212 326.152 195.23C325.904 195.247 325.672 195.362 325.509 195.549C325.345 195.738 325.264 195.983 325.281 196.231C325.393 197.954 325.505 199.808 325.505 201.606C325.505 201.854 325.604 202.093 325.781 202.267C325.955 202.444 326.193 202.542 326.442 202.542C326.69 202.542 326.932 202.444 327.109 202.269C327.29 202.094 327.392 201.855 327.395 201.606ZM54.6459 244.115C54.7689 244.11 54.8897 244.08 55.0014 244.029C55.1131 243.977 55.2139 243.904 55.2973 243.814C55.3807 243.723 55.4457 243.619 55.4879 243.502C55.5305 243.386 55.5499 243.264 55.5448 243.141C55.5257 242.896 55.4151 242.667 55.2343 242.499C55.0538 242.334 54.8169 242.242 54.571 242.242C52.3051 242.336 50.4138 242.411 48.5224 242.373C48.2739 242.373 48.0359 242.472 47.8602 242.648C47.6848 242.823 47.5861 243.061 47.5861 243.309C47.5861 243.558 47.6848 243.796 47.8602 243.971C48.0359 244.147 48.2739 244.246 48.5224 244.246C50.5261 244.283 52.6235 244.208 54.6459 244.115ZM339.026 205.688C337.153 205.782 335.073 205.838 332.996 205.838C332.873 205.833 332.751 205.854 332.632 205.897C332.516 205.941 332.414 206.008 332.322 206.092C332.233 206.178 332.162 206.281 332.114 206.395C332.066 206.509 332.039 206.632 332.039 206.756C332.039 207.005 332.138 207.245 332.315 207.425C332.489 207.603 332.727 207.706 332.976 207.711C335.11 207.711 336.833 207.711 339.101 207.561C339.223 207.556 339.343 207.526 339.455 207.475C339.567 207.424 339.669 207.35 339.751 207.26C339.836 207.169 339.901 207.065 339.942 206.948C339.986 206.832 340.003 206.71 340 206.587C339.976 206.344 339.863 206.117 339.683 205.952C339.506 205.785 339.271 205.691 339.026 205.688ZM11.6125 188.628C11.856 188.816 64.6646 180.988 66.9305 179.602C67.0561 179.51 67.1562 179.388 67.2216 179.248C67.2869 179.108 67.3159 178.952 67.305 178.797C67.305 176.381 64.1402 153.704 62.6234 148.048C62.4361 147.355 62.2489 146.662 61.8182 146.419C58.953 144.696 8.46652 154.209 5.45156 156.157C5.36992 156.205 5.29923 156.271 5.24445 156.347C5.18953 156.425 5.15177 156.513 5.13318 156.606C4.49648 158.872 9.98332 187.505 11.6125 188.628ZM6.27553 157.056C9.871 155.426 55.6946 147.037 60.938 147.692C62.2114 150.97 65.6196 174.977 65.8443 178.497C63.2414 179.265 12.3242 188.01 12.1369 188.048C11.9496 188.085 11.9309 188.31 11.5376 187.13C9.88972 182.186 6.18189 161.288 6.27553 157.056Z" fill="black"/>
<path d="M71.0497 181.269C71.1515 181.08 71.1971 180.865 71.1808 180.651C71.1808 177.673 66.9111 144.621 65.3943 141.981C65.2755 141.786 65.1073 141.626 64.9064 141.518C64.7059 141.409 64.4801 141.356 64.252 141.363C57.9786 140.595 5.05781 150.932 1.5747 153.348C1.08782 153.685 1.16272 154.528 1.2189 155.426C1.51852 160.351 6.83682 192.748 8.70946 192.561C8.91546 192.561 8.84055 192.411 8.35366 193.404C5.43234 199.415 -0.110676 218.666 0.00168242 222.542C0.00168242 224.171 0.376211 226.287 1.98668 226.175C13.5409 224.752 70.1883 215.763 86.4802 212.411C87.1169 212.28 87.5289 211.699 87.5102 210.744C87.3178 209.152 86.8357 207.61 86.087 206.194C83.8024 201.905 74.3268 184.921 71.0497 181.269ZM8.82182 191.98C7.36116 190.108 1.98668 157.842 2.39866 154.265C6.51847 152.131 58.7277 142.037 64.1958 142.861C65.6939 146.981 69.5703 176.737 69.8137 180.314C63.1846 182.598 17.2862 190.014 8.82182 191.98ZM9.64579 192.542C11.2188 192.149 64.7951 183.179 69.7014 181.887C72.3793 184.377 84.4765 205.894 85.263 207.729C74.5141 209.602 10.7506 220.257 1.36871 221.68C1.4998 216.006 7.32371 196.175 9.64579 192.542Z" fill="black"/>
</svg>
