<svg width="346" height="401" viewBox="0 0 346 401" fill="none" xmlns="http://www.w3.org/2000/svg">
<path fill-rule="evenodd" clip-rule="evenodd" d="M206.746 384.259C211.379 379.775 226.816 363.201 231.807 359.326C231.96 359.162 232.167 359.057 232.39 359.031C232.611 359.004 232.836 359.059 233.023 359.182C233.21 359.306 233.347 359.492 233.41 359.706C233.473 359.922 233.457 360.152 233.366 360.358C230.881 364.843 209.21 385.208 207.946 386.407C207.083 387.483 203.376 391.948 202.365 392.874C202.397 393.713 202.178 394.54 201.736 395.252C201.291 395.968 200.645 396.531 199.88 396.876C197.167 397.798 194.51 398.874 191.92 400.096C191.541 400.433 191.098 400.096 191.204 399.74C192.503 398.112 193.592 396.328 194.447 394.433C194.631 393.177 195.268 392.032 196.239 391.212C197.208 390.397 198.443 389.96 199.712 389.987C199.859 389.715 205.44 385.124 206.746 384.259ZM199.649 390.324C198.511 390.389 197.434 390.864 196.616 391.657C195.797 392.449 195.287 393.506 195.184 394.643C194.71 396.071 193.998 397.412 193.078 398.602C198.406 396.389 200.217 396.707 201.376 394.915C201.742 394.322 201.972 393.651 202.05 392.958C200.575 392.556 199.543 390.071 199.649 390.324ZM206.325 385.04C204.682 386.533 202.976 388.134 200.47 390.305C200.838 391.036 201.39 391.66 202.071 392.116L207.567 386.238C207.083 385.928 206.667 385.518 206.346 385.04H206.325ZM196.953 360.231C199.354 358.652 231.934 337.213 232.25 338.266C232.566 339.319 200.281 363.748 200.007 363.917C198.638 365.475 189.477 375.352 188.276 375.773C186.749 375.716 185.302 375.077 184.233 373.981C182.769 372.488 181.685 370.659 181.074 368.655C180.674 367.223 195.647 360.779 196.953 360.231ZM182.106 369.603C182.52 370.938 183.271 372.144 184.285 373.105C185.298 374.07 186.543 374.755 187.897 375.1C186.381 373.667 183.18 370.614 182.106 369.603ZM188.424 364.738C186.113 365.84 183.892 367.13 181.79 368.592C182.064 369.498 181.79 368.592 183.896 370.34C185.605 371.681 187.104 373.269 188.34 375.057C189.393 374.276 193.668 370.024 193.415 370.256C191.837 368.322 190.149 366.479 188.361 364.738H188.424ZM197.037 360.526C193.562 362.148 191.246 363.285 188.613 364.57C190.702 365.903 192.397 367.772 193.52 369.982C194.784 368.718 199.08 364.359 199.712 363.664C199.101 363.074 197.501 361.242 196.974 360.568L197.037 360.526ZM248.066 336.454C249.14 327.02 250.719 315.289 252.004 315.226C253.289 315.163 251.899 327.02 250.572 336.518C254.784 336.876 259.796 339.192 258.996 343.194C259.035 343.906 258.941 344.62 258.722 345.3C260.828 359.599 258.954 362.548 259.101 362.316C257.874 363.794 256.34 364.984 254.605 365.807C252.869 366.628 250.975 367.062 249.056 367.076C247.128 367.086 245.221 366.684 243.459 365.902C241.699 365.117 240.124 363.966 238.841 362.527C237.093 359.894 238.21 348.775 238.547 345.679C238.36 345.027 238.254 344.355 238.231 343.678C237.976 342.571 238.12 341.409 238.636 340.396C239.152 339.383 240.007 338.585 241.053 338.139C243.206 336.984 245.623 336.403 248.066 336.454ZM258.322 354.945C256.658 358.357 252.004 359.431 248.255 359.431C248.204 360.44 248.092 361.446 247.918 362.442C247.75 363.243 247.56 363.938 246.739 363.917C245.554 363.676 244.51 362.981 243.833 361.979C243.285 361.158 243.411 360.737 244.106 358.925C243.194 358.687 242.344 358.253 241.618 357.653C240.89 357.053 240.301 356.302 239.894 355.451C239.903 357.332 240.094 359.208 240.463 361.053C240.907 361.89 241.542 362.611 242.316 363.159C247.076 367.034 252.846 365.938 257.669 361.79C257.88 360.231 258.175 357.177 258.322 354.945ZM238.989 346.521C238.841 349.069 238.273 359.831 239.705 361.937C240.807 363.218 242.2 364.215 243.769 364.843C242.125 364.041 240.788 362.725 239.958 361.095C239.596 358.839 239.475 356.553 239.6 354.271C239.466 353.632 239.491 352.971 239.672 352.342C239.85 351.716 240.18 351.142 240.632 350.67C242.127 348.943 242.485 349.933 241.116 348.985C240.221 348.381 239.489 347.563 238.989 346.605V346.521ZM244.654 358.947C244.399 359.629 244.208 360.335 244.085 361.053C244.085 361.769 245.981 363.369 246.823 363.285C247.118 363.285 247.202 362.843 247.308 362.316C247.495 361.363 247.622 360.4 247.687 359.431C246.663 359.41 245.647 359.276 244.654 359.031V358.947ZM258.469 346.016C257.746 347.349 256.639 348.436 255.289 349.133C257.711 349.891 259.312 351.512 258.659 353.976C258.659 355.303 258.659 356.609 258.533 357.788C258.322 362.19 258.175 362 258.385 361.684C259.375 357.936 258.869 350.059 258.469 346.1V346.016ZM254.931 349.322C252.962 350.275 250.802 350.772 248.613 350.775C248.617 352.033 248.454 353.287 248.129 354.503C248.215 355.905 248.215 357.313 248.129 358.715C250.767 358.804 253.375 358.139 255.647 356.798C258.996 354.692 259.522 350.881 254.931 349.406V349.322ZM246.233 354.587C246.107 354.882 245.054 357.809 244.865 358.336C245.809 358.566 246.778 358.685 247.75 358.694C247.75 357.662 247.96 355.682 247.939 354.65C247.378 354.773 246.799 354.78 246.233 354.671V354.587ZM242.295 349.701C238.252 352.481 239.958 356.904 244.401 358.252C244.844 357.135 245.539 355.577 246.044 354.503C246.102 353.245 246.242 351.993 246.465 350.754C245.026 350.643 243.615 350.287 242.295 349.701ZM246.655 350.775L246.465 354.187C246.823 354.187 247.981 354.355 247.855 354.187C247.729 354.018 248.129 352.207 248.276 350.817C247.729 350.859 247.181 350.838 246.655 350.796V350.775ZM258.111 345.194C254.363 349.891 243.032 349.954 239.157 345.194C239.566 346.249 240.242 347.183 241.116 347.9C241.99 348.62 243.034 349.103 244.149 349.301C248.95 350.607 256.174 349.554 258.111 345.215V345.194ZM250.256 338.708C249.624 343.067 249.077 346.605 248.887 347.764C252.067 347.764 256.321 346.605 257.795 344.036C257.332 340.751 253.583 339.045 250.256 338.729V338.708ZM247.813 338.708C246.074 338.794 244.391 339.345 242.937 340.305C241.486 341.265 240.319 342.597 239.557 344.162C240.905 346.268 244.296 347.427 246.907 347.679C247.013 346.521 247.35 343.025 247.813 338.729V338.708ZM248.024 336.855C245.728 336.939 243.49 337.597 241.516 338.771C239.642 339.971 238.378 341.825 239.41 343.825C240.128 342.167 241.3 340.744 242.79 339.719C244.28 338.694 246.028 338.111 247.834 338.034L248.024 336.855ZM250.572 337.065C250.572 337.423 250.467 337.781 250.403 338.139C253.878 338.455 257.522 340.245 258.09 343.615C258.848 341.698 257.585 339.971 255.816 338.855C254.217 337.888 252.429 337.277 250.572 337.065ZM270.747 345.616C269.758 340.709 261.755 304.148 264.429 302.021C265.379 301.498 266.412 301.142 267.483 300.968C270.431 300.337 289.238 297.809 290.101 300.358C290.965 302.906 285.889 341.719 285.51 343.804C285.51 345.215 284.984 349.154 284.984 349.154C284.438 350.296 283.627 351.291 282.622 352.06C281.614 352.828 280.44 353.346 279.194 353.573C277.95 353.799 276.667 353.725 275.456 353.36C274.243 352.995 273.134 352.347 272.222 351.47C271.518 349.578 271.025 347.614 270.747 345.616ZM289.027 305.033C280.963 305.14 272.917 305.844 264.956 307.139C265.609 315.984 269.442 336.623 271.105 345.426C273.298 346.624 275.796 347.146 278.285 346.925C280.775 346.703 283.143 345.751 285.089 344.183C285.321 342.393 288.859 307.392 289.027 305.033ZM287.132 317.248C287.132 317.248 287.258 315.816 285.489 316.174C283.72 316.532 280.498 319.564 276.539 319.227C272.58 318.89 268.81 316.679 267.63 318.153C266.451 319.627 271.442 324.282 277.908 323.187C285.321 321.944 287.279 318.89 287.132 317.248ZM266.283 302.295C265.967 302.295 265.103 302.632 265.019 302.906C264.84 304.241 264.84 305.593 265.019 306.928L267.125 306.528C266.649 305.163 266.365 303.738 266.283 302.295ZM269.926 301.516C268.852 301.705 267.588 301.937 266.556 302.211C266.869 303.601 267.102 305.006 267.251 306.423C268.052 306.275 270.284 305.896 270.937 305.833C270.874 305.686 270.368 303.938 269.926 301.516ZM273.948 300.989C272.622 301.137 271.358 301.305 270.2 301.474C270.716 302.883 271.028 304.357 271.126 305.854L274.664 305.412C274.538 304.717 274.096 302.527 273.948 300.989ZM277.887 300.61C277.171 300.61 275.654 300.779 274.222 300.947C274.666 302.386 274.885 303.885 274.875 305.391L278.666 305.033C278.603 304.675 278.16 302.779 277.95 300.61H277.887ZM282.099 300.337L278.16 300.589C278.615 302.019 278.855 303.51 278.876 305.012C280.098 305.012 281.446 304.843 282.646 304.801C282.646 304.759 282.162 300.61 282.162 300.337H282.099ZM287.195 300.337C287.12 301.812 286.958 303.281 286.711 304.738H289.048C289.048 304.212 289.406 300.673 289.048 300.526C288.438 300.405 287.818 300.349 287.195 300.358V300.337ZM286.921 300.337H282.394C282.801 301.788 282.957 303.297 282.857 304.801H286.521C286.458 303.303 286.593 301.8 286.921 300.337ZM128.423 329.336C131.182 329.336 133.436 330.347 133.436 331.632C133.436 332.916 131.182 333.927 128.423 333.927C125.665 333.927 123.432 332.895 123.432 331.632C123.432 330.368 125.58 329.336 128.423 329.336ZM75.1837 317.206C75.1837 317.669 74.3203 318.09 73.2251 318.132C72.13 318.174 71.1191 317.816 71.1191 317.332C71.1613 316.216 75.1416 316.005 75.1837 317.206Z" fill="black"/>
<path d="M95.1275 370.361C96.4769 370.361 97.5705 369.71 97.5705 368.908C97.5705 368.106 96.4769 367.455 95.1275 367.455C93.7785 367.455 92.6846 368.106 92.6846 368.908C92.6846 369.71 93.7785 370.361 95.1275 370.361Z" fill="black"/>
<path fill-rule="evenodd" clip-rule="evenodd" d="M200.301 299.157C202.407 299.157 204.218 299.768 204.218 300.505C204.218 301.242 202.47 301.874 200.301 301.874C198.132 301.874 196.405 301.263 196.405 300.505C196.405 299.747 198.153 299.157 200.301 299.157ZM66.2124 245.391C66.2124 245.918 65.8965 249.898 66.065 255.711C66.065 256.49 66.2124 259.143 66.2124 259.143C66.2124 259.143 66.4651 259.291 66.4651 259.143C66.4651 258.996 66.5915 256.49 66.6125 255.711C66.7389 250.867 66.4651 245.181 66.4651 245.391C66.4651 245.358 66.4521 245.326 66.428 245.302C66.4042 245.279 66.3721 245.265 66.3388 245.265C66.3051 245.265 66.2733 245.279 66.2495 245.302C66.2258 245.326 66.2124 245.358 66.2124 245.391ZM153.927 15.2685C156.559 15.9845 161.214 17.4798 162.898 19.649C162.96 19.7285 162.993 19.8255 162.993 19.9256C162.993 20.0256 162.964 20.1232 162.904 20.2037C162.844 20.2843 162.76 20.3436 162.665 20.3725C162.568 20.4017 162.467 20.3991 162.372 20.365C153.948 16.9322 140.533 21.3127 132.025 24.8508C128.655 26.2618 148.873 3.45378 163.404 7.03398C163.504 7.06427 163.59 7.12565 163.653 7.20901C163.714 7.29256 163.748 7.39346 163.748 7.49734C163.748 7.60107 163.714 7.70216 163.653 7.78552C163.59 7.86907 163.504 7.93029 163.404 7.96066C160.101 8.73532 156.858 9.74165 153.695 10.9722C156.117 11.0775 161.698 11.4356 163.572 13.0782C163.648 13.1425 163.701 13.2269 163.729 13.3215C163.755 13.4159 163.755 13.5161 163.725 13.61C163.695 13.7037 163.641 13.7871 163.566 13.8498C163.488 13.9124 163.397 13.9517 163.299 13.9628C160.155 14.236 157.026 14.6718 153.927 15.2685ZM160.919 7.6237C156.782 7.60861 152.714 8.68356 149.125 10.7406C142.704 14.1477 136.986 18.7429 132.278 24.2822C140.343 20.7862 151.821 16.8269 160.434 18.8066C157.718 17.4187 154.829 16.3989 151.842 15.7739C151.733 15.7509 151.637 15.6913 151.566 15.6049C151.496 15.5188 151.458 15.411 151.458 15.3001C151.458 15.189 151.496 15.0814 151.566 14.9951C151.637 14.9089 151.733 14.8492 151.842 14.8262C155.052 13.9615 158.327 13.3698 161.635 13.0572C158.406 12.2955 155.097 11.9138 151.779 11.9199C151.672 11.9229 151.565 11.8898 151.479 11.8257C151.391 11.7615 151.328 11.6701 151.298 11.566C151.27 11.4617 151.277 11.3508 151.317 11.251C151.36 11.1509 151.433 11.0677 151.526 11.0144C154.52 9.53595 157.672 8.39856 160.919 7.6237ZM18.701 183.791C16.6065 184.064 14.4952 184.193 12.383 184.17C12.2758 184.173 12.1701 184.142 12.0847 184.077C11.9994 184.012 11.9389 183.919 11.914 183.814C11.8891 183.71 11.9013 183.6 11.9484 183.503C11.9955 183.406 12.0748 183.329 12.1724 183.285C14.7839 181.874 20.9334 180.484 24.0924 178.294L31.9057 173.071C31.9214 173.053 31.9409 173.04 31.9627 173.029C31.9845 173.019 32.0083 173.013 32.032 173.013C32.0561 173.013 32.0795 173.019 32.1013 173.029C32.1231 173.04 32.1427 173.053 32.1584 173.071C32.39 173.345 31.9057 173.366 29.2732 176.841C27.5256 178.992 26.1061 181.392 25.0612 183.959C23.932 186.644 22.9406 189.386 22.0917 192.172C22.0917 192.804 20.5754 193.268 20.9966 189.814C21.1712 188.526 21.4097 187.246 21.7126 185.981C19.5277 187.559 17.2257 188.966 14.826 190.193C14.7395 190.242 14.6399 190.265 14.5407 190.256C14.4415 190.246 14.3474 190.207 14.2715 190.142C14.1953 190.077 14.1413 189.991 14.1161 189.895C14.0908 189.798 14.0962 189.696 14.131 189.603C15.2081 187.353 16.7685 185.369 18.701 183.791ZM30.621 174.461C20.3016 181.727 24.9137 179.094 14.6154 183.201C16.5862 183.196 18.5452 182.899 20.4279 182.316L20.6596 182.127C21.1229 181.769 21.9443 182.485 21.0387 183.075C19.0146 184.666 17.2272 186.539 15.7316 188.634C18.0639 187.441 20.248 185.977 22.2391 184.275C22.3134 184.189 22.4152 184.131 22.5274 184.114C22.6396 184.094 22.7545 184.115 22.8525 184.173C22.9502 184.231 23.0248 184.322 23.0627 184.43C23.1007 184.536 23.1003 184.653 23.0605 184.759C22.6247 186.348 22.2736 187.957 22.0074 189.582C23.6723 183.943 26.6204 178.768 30.621 174.461ZM32.0531 164.626C35.6245 158.839 40.7267 154.153 46.7951 151.084C54.9664 147.23 57.9569 151.337 54.2503 158.708C51.094 164.597 46.5822 169.649 41.0878 173.45C41.7066 175.61 41.9555 177.86 41.8249 180.105C41.2774 182.211 30.979 185.749 29.568 185.581C29.4612 185.575 29.3574 185.542 29.2686 185.483C29.1797 185.423 29.1085 185.34 29.0626 185.244C28.852 184.759 29.3363 184.317 29.7996 183.959C32.3709 182.081 35.0654 180.379 37.8656 178.863L37.7182 175.367L36.5178 175.956C36.4397 175.977 36.357 175.977 36.2789 175.955C36.2011 175.934 36.1307 175.89 36.0755 175.83L29.4416 169.364C29.4106 169.33 29.3934 169.286 29.3934 169.238C29.3934 169.191 29.4106 169.147 29.4416 169.112C29.4416 169.112 29.6522 168.67 30.0945 167.89H26.409C25.8614 169.028 22.197 176.441 21.0176 176.946C20.933 176.987 20.8396 177.008 20.7458 177.004C20.6516 177.002 20.5593 176.978 20.477 176.932C20.3943 176.886 20.3242 176.822 20.2717 176.744C20.2193 176.665 20.186 176.576 20.1752 176.483C19.9225 174.903 23.0394 164.605 25.1033 163.994C27.395 163.784 29.7055 163.94 31.9478 164.458C31.9811 164.471 32.009 164.494 32.0278 164.525C32.0469 164.555 32.0558 164.59 32.0531 164.626ZM40.6245 173.598C39.7886 174.156 38.924 174.668 38.0341 175.135L38.4764 179.115C38.4764 179.431 38.4764 179.242 34.2644 182.022C32.9797 182.843 31.674 183.706 30.7895 184.359C33.9852 183.478 37.0669 182.227 39.9716 180.632C40.2033 180.484 40.814 180.063 40.8983 179.789C41.1207 177.724 41.0285 175.635 40.6245 173.598ZM31.337 166.711C30.5157 167.932 30.0103 168.817 29.8207 169.175L36.3493 175.219C37.1075 174.84 37.9288 174.377 38.7923 173.85C36.0721 171.729 33.5744 169.337 31.337 166.711ZM31.8635 164.921C29.6913 164.613 27.4861 164.613 25.3139 164.921C24.5768 165.174 23.3132 168.522 23.0815 169.133C22.3379 171.116 21.7398 173.15 21.2914 175.219C22.555 173.345 26.0088 167.216 25.8614 167.511C25.8901 167.451 25.9349 167.402 25.9912 167.369C26.0471 167.336 26.1119 167.32 26.1773 167.322L30.284 167.532C30.7052 166.732 31.2107 165.911 31.8635 164.921ZM43.4676 153.991C38.6939 157.231 34.6369 161.417 31.5476 166.29C34.344 168.436 36.9003 170.879 39.1714 173.576C43.9769 170.409 48.1016 166.314 51.3019 161.53L43.4676 153.991ZM39.6979 159.277C39.2927 159.701 38.9753 160.201 38.7632 160.749C38.5514 161.296 38.4496 161.88 38.4634 162.466C38.4768 163.053 38.6058 163.631 38.8432 164.168C39.0802 164.705 39.4206 165.189 39.8453 165.595C40.2699 166 40.77 166.318 41.3172 166.53C41.8647 166.741 42.4479 166.843 43.0349 166.83C43.6215 166.816 44.1997 166.686 44.7366 166.449C45.2734 166.213 45.7582 165.872 46.1633 165.447C46.9816 164.59 47.4257 163.443 47.3982 162.258C47.3706 161.073 46.8732 159.948 46.0159 159.129C45.1585 158.311 44.0113 157.867 42.8262 157.894C41.6415 157.922 40.5161 158.419 39.6979 159.277ZM45.5736 159.614C46.2513 160.31 46.6308 161.243 46.6308 162.215C46.6308 163.186 46.2513 164.119 45.5736 164.816C44.9089 165.432 44.0339 165.772 43.1276 165.765C42.2208 165.758 41.3509 165.407 40.6953 164.78C40.0394 164.154 39.6473 163.301 39.5991 162.396C39.5508 161.491 39.8495 160.601 40.435 159.909C41.0867 159.204 41.9865 158.779 42.9449 158.724C43.9033 158.669 44.8457 158.988 45.5736 159.614ZM44.4153 160.814C44.7021 161.112 44.8951 161.487 44.9701 161.894C45.0448 162.3 44.9988 162.719 44.8373 163.099C44.6757 163.48 44.4057 163.804 44.0611 164.032C43.7161 164.26 43.3121 164.382 42.899 164.382C42.4858 164.382 42.0815 164.26 41.7368 164.032C41.3926 163.804 41.1227 163.48 40.9611 163.099C40.7991 162.719 40.7528 162.3 40.8282 161.894C40.9029 161.487 41.0959 161.112 41.3826 160.814C41.5791 160.61 41.8146 160.448 42.0753 160.337C42.3357 160.227 42.616 160.17 42.899 160.17C43.1819 160.17 43.4622 160.227 43.7226 160.337C43.9834 160.448 44.2189 160.61 44.4153 160.814Z" fill="black"/>
<path fill-rule="evenodd" clip-rule="evenodd" d="M111.09 17.7744C110.897 17.611 110.746 17.4043 110.649 17.1714C110.551 16.9383 110.51 16.6856 110.53 16.434C110.548 16.1821 110.627 15.9383 110.758 15.7227C110.889 15.5068 111.069 15.3251 111.284 15.1925C111.499 15.0596 111.742 14.9796 111.994 14.9589C112.245 14.9382 112.499 14.9772 112.732 15.073C112.966 15.1686 113.174 15.3181 113.338 15.5096C113.503 15.7009 113.62 15.9285 113.68 16.1739C113.695 16.4389 113.648 16.7037 113.541 16.947C113.434 17.19 113.272 17.4047 113.066 17.573C112.861 17.7413 112.619 17.8587 112.36 17.9157C112.1 17.9728 111.831 17.9675 111.574 17.9008C111.574 18.1114 111.259 20.449 110.627 23.1868C113.553 23.1979 116.378 24.2591 118.587 26.1774C118.619 26.1186 118.672 26.0737 118.735 26.051C135.162 23.7344 136.867 29.1678 131.581 33.5272C125.642 38.4342 107.404 44.0572 97.3375 42.7305C94.705 42.4146 90.6194 41.1931 90.5773 38.708C90.5773 35.5069 99.1491 31.9477 99.486 31.7793C100.859 28.3024 103.512 25.4836 106.899 23.9029C105.404 22.2813 103.845 19.9225 103.487 19.5224C101.697 20.4912 100.013 18.1956 101.381 17.0163C101.683 16.7518 102.076 16.6158 102.477 16.6372C102.81 16.5695 103.157 16.6163 103.461 16.7701C103.765 16.9238 104.009 17.1754 104.152 17.4845C104.296 17.7934 104.331 18.1418 104.252 18.4733C104.174 18.8048 103.986 19.1002 103.719 19.3118C104.427 19.8222 105.059 20.4322 105.593 21.123C108.626 24.7874 106.057 23.5238 109.805 23.229C109.917 21.3504 110.351 19.5052 111.09 17.7744ZM99.1276 32.3689C97.2322 33.2956 91.1248 36.5809 91.2091 38.6869C91.2091 39.3819 91.8198 40.0769 92.936 40.6876C100.77 44.8996 124.084 38.2868 130.844 32.7901C134.698 29.6943 134.298 26.7249 126.969 26.1984C124.159 26.071 121.343 26.1554 118.545 26.4512C118.018 27.6726 112.943 37.2759 99.1276 32.3689ZM97.0216 37.3812C96.9301 37.5761 96.8803 37.7882 96.8758 38.0034C96.8712 38.2186 96.9121 38.4327 96.9952 38.631C97.0791 38.8294 97.2031 39.0082 97.3597 39.156C97.5167 39.3034 97.7028 39.4164 97.9065 39.4872C98.1083 39.5374 98.3182 39.5473 98.5238 39.5163C98.7298 39.4853 98.927 39.4141 99.105 39.3065C99.2835 39.1989 99.4382 39.0568 99.5615 38.8891C99.6848 38.7214 99.7732 38.5311 99.8226 38.3289C99.9486 37.9575 99.9214 37.5512 99.7476 37.1997C99.5737 36.8482 99.2674 36.5802 98.8964 36.4546C98.5246 36.329 98.1187 36.3558 97.7672 36.5296C97.4157 36.7035 97.1476 37.0098 97.0216 37.3812ZM98.7489 36.7915C99.6756 37.2127 99.0434 38.8975 98.1589 38.6448C97.2744 38.3921 97.7381 36.602 98.7489 36.7915ZM113.28 35.5911C113.131 35.4801 112.959 35.4043 112.777 35.3683C112.595 35.3327 112.407 35.338 112.227 35.3847C112.047 35.4311 111.88 35.5172 111.738 35.6367C111.596 35.7565 111.482 35.9063 111.406 36.0755C111.244 36.453 111.228 36.8769 111.36 37.266C111.492 37.6546 111.764 37.9809 112.122 38.1815C112.293 38.2876 112.485 38.3538 112.686 38.3756C112.886 38.3975 113.088 38.3741 113.278 38.3071C113.468 38.2405 113.64 38.1321 113.783 37.9904C113.925 37.8484 114.034 37.6761 114.101 37.4865C114.22 37.1247 114.201 36.7322 114.05 36.3834C113.899 36.0341 113.625 35.7523 113.28 35.5911ZM113.112 35.886C113.954 36.5178 113.407 37.992 112.522 37.4865C111.638 36.9811 112.101 35.4648 113.112 35.907V35.886ZM124.379 29.8628C124.256 29.7483 124.109 29.6625 123.949 29.6128C123.79 29.5626 123.62 29.5492 123.455 29.5733C123.288 29.5978 123.13 29.6591 122.991 29.7529C122.852 29.8467 122.736 29.9708 122.652 30.1155C122.489 30.4529 122.455 30.8377 122.556 31.1984C122.656 31.5591 122.885 31.8704 123.199 32.0741C123.34 32.1886 123.504 32.2701 123.679 32.3134C123.855 32.3567 124.039 32.3601 124.216 32.3241C124.393 32.2878 124.56 32.2123 124.705 32.1036C124.85 31.9948 124.969 31.8555 125.053 31.695C125.13 31.5307 125.174 31.3527 125.182 31.1712C125.19 30.9897 125.162 30.8082 125.1 30.6378C125.037 30.467 124.941 30.3108 124.817 30.1775C124.693 30.0447 124.544 29.9375 124.379 29.8628ZM124.21 30.1366C124.842 30.7263 124.4 31.9056 123.663 31.4002C122.926 30.8947 123.347 29.7154 124.21 30.1366ZM102.477 16.9531C102.749 16.9631 103.008 17.0744 103.203 17.2653C103.397 17.4561 103.514 17.7127 103.529 17.985C103.518 18.229 103.414 18.4592 103.237 18.6281C103.061 18.7967 102.826 18.8908 102.582 18.8906C102.455 18.8975 102.327 18.8792 102.207 18.8369C102.087 18.7946 101.976 18.7292 101.881 18.6441C101.69 18.4722 101.574 18.2314 101.56 17.9745C101.546 17.7176 101.635 17.4656 101.807 17.2739C101.978 17.0824 102.22 16.967 102.477 16.9531ZM111.806 15.163C112.078 15.173 112.337 15.2843 112.532 15.4752C112.727 15.666 112.843 15.9226 112.859 16.1949C112.848 16.4389 112.744 16.6691 112.567 16.838C112.39 17.0066 112.156 17.1007 111.911 17.1005C111.776 17.1269 111.636 17.1239 111.501 17.0916C111.366 17.0595 111.24 16.9987 111.131 16.9136C111.022 16.8285 110.932 16.7211 110.868 16.5984C110.804 16.4758 110.767 16.3408 110.759 16.2027C110.752 16.0644 110.773 15.9262 110.824 15.7973C110.874 15.6684 110.951 15.5517 111.051 15.4552C111.15 15.3587 111.269 15.2844 111.399 15.2378C111.529 15.1909 111.668 15.1726 111.806 15.184V15.163ZM215.737 119.726C216.725 117.894 218.345 116.486 220.297 115.761C222.247 115.037 224.395 115.047 226.339 115.789C228.282 116.532 229.89 117.956 230.86 119.796C231.832 121.637 232.101 123.767 231.617 125.791C234.714 127.298 237.673 129.074 240.462 131.098C241.683 132.193 241.515 133.204 239.346 133.057C235.579 132.721 231.854 132.015 228.226 130.951C227.064 131.799 225.709 132.341 224.284 132.528C222.859 132.715 221.409 132.54 220.069 132.02C218.728 131.5 217.54 130.651 216.615 129.551C215.688 128.452 215.053 127.137 214.769 125.728C212.663 124.717 205.355 120.947 204.912 118.82C204.765 118.041 205.523 117.683 206.323 117.599C209.56 117.769 212.741 118.488 215.737 119.726ZM231.448 126.233C231.038 127.664 230.26 128.964 229.195 130.003C232.773 131.035 236.439 131.74 240.146 132.109C238.945 130.551 233.175 127.223 231.448 126.233ZM215.527 126.044C215.869 127.229 216.478 128.319 217.31 129.23C218.142 130.141 219.172 130.848 220.32 131.296C221.469 131.744 222.706 131.921 223.935 131.814C225.163 131.707 226.35 131.318 227.405 130.677C223.336 129.429 219.365 127.88 215.527 126.044ZM228.542 129.814C230.021 128.495 230.964 126.677 231.19 124.708C231.415 122.739 230.907 120.755 229.763 119.136C229.163 118.252 228.389 117.5 227.489 116.925C226.587 116.35 225.579 115.965 224.525 115.794C223.47 115.622 222.39 115.668 221.355 115.927C220.318 116.187 219.345 116.656 218.496 117.304C217.352 118.146 216.45 119.274 215.881 120.576C215.311 121.877 215.095 123.305 215.253 124.717C219.539 126.771 223.982 128.475 228.542 129.814ZM215.527 120.147C213.968 119.642 207.103 117.662 205.86 118.631C206.345 120.147 213.189 123.706 214.769 124.359C214.649 122.913 214.909 121.46 215.527 120.147ZM62.8413 249.94C65.3842 251.611 68.0607 253.069 70.8441 254.299C70.8712 254.308 70.9003 254.307 70.9268 254.298C70.9532 254.287 70.9754 254.268 70.9899 254.243C71.0045 254.218 71.0106 254.191 71.0072 254.163C71.0037 254.134 70.9907 254.108 70.9704 254.089C68.4248 252.421 65.7487 250.965 62.9676 249.729C62.9408 249.72 62.9117 249.722 62.8853 249.731C62.8585 249.742 62.8363 249.761 62.8217 249.786C62.8072 249.808 62.8011 249.838 62.8049 249.866C62.8083 249.894 62.821 249.921 62.8413 249.94ZM17.1832 65.033C17.1832 59.9365 17.478 55.1348 17.478 55.3454C17.4918 55.3033 17.5186 55.2665 17.5546 55.2405C17.5906 55.2144 17.6338 55.2007 17.6783 55.2007C17.7227 55.2007 17.7656 55.2144 17.8016 55.2405C17.8376 55.2665 17.8644 55.3033 17.8781 55.3454C17.8781 56.8828 18.1519 58.2517 18.173 65.37C19.7295 64.3572 21.3393 63.429 22.9957 62.59C23.0179 62.5763 23.0424 62.5671 23.0681 62.5625C23.0941 62.5583 23.1206 62.559 23.1458 62.5648C23.1711 62.5709 23.1952 62.5816 23.2167 62.5969C23.2377 62.6119 23.2557 62.631 23.2695 62.6532C23.2833 62.6754 23.2929 62.6999 23.2971 62.726C23.3017 62.7512 23.3005 62.7777 23.2948 62.8033C23.289 62.8286 23.2779 62.8527 23.263 62.8738C23.2477 62.8952 23.2285 62.9132 23.2063 62.927C21.8585 64.0328 20.4521 65.0663 18.9943 66.0228C22.027 67.6866 22.6377 68.1288 24.0908 69.0133C25.544 69.8979 25.565 69.8979 25.4597 70.1085C25.3544 70.3191 25.2491 70.2348 23.796 69.5609C22.3429 68.887 21.353 68.4658 18.173 66.7178C18.173 74.7838 17.8571 78.4693 17.8571 78.2587C17.8433 78.3008 17.8165 78.3376 17.7805 78.3636C17.7445 78.3896 17.7016 78.4034 17.6572 78.4034C17.6128 78.4034 17.5695 78.3896 17.5335 78.3636C17.4975 78.3376 17.4707 78.3008 17.4569 78.2587C17.4569 76.7424 17.1621 75.4156 17.1621 67.2022C15.519 68.2908 13.8178 69.289 12.0656 70.1927C12.0434 70.2065 12.0189 70.2161 11.9932 70.2203C11.9676 70.2245 11.9411 70.2237 11.9159 70.218C11.8902 70.2119 11.8661 70.2011 11.845 70.1858C11.824 70.1709 11.8056 70.1517 11.7918 70.1295C11.778 70.1073 11.7688 70.0828 11.7646 70.0572C11.76 70.0315 11.7608 70.0051 11.7669 69.9794C11.7727 69.9542 11.7834 69.93 11.7987 69.909C11.8136 69.8875 11.8328 69.8695 11.855 69.8557C13.5134 68.4979 15.2502 67.2389 17.0568 66.086C15.3509 65.1383 14.8034 64.8013 13.4555 63.98C12.1077 63.1587 11.6654 62.9059 11.7707 62.6743C11.8106 62.6452 11.8584 62.6295 11.9078 62.6295C11.9568 62.6295 12.0051 62.6452 12.0445 62.6743C14.6981 63.6641 16.2776 64.5697 17.1832 65.033Z" fill="black"/>
<path fill-rule="evenodd" clip-rule="evenodd" d="M62.9707 254.299C65.3298 253.062 67.5652 251.602 69.6467 249.94C69.7941 249.94 69.6467 249.645 69.5204 249.729C67.1628 250.968 64.9274 252.429 62.8443 254.089C62.718 254.173 62.8443 254.384 62.9707 254.299ZM128.257 127.307C128.257 133.225 128.467 134.173 128.467 135.247C128.458 135.269 128.455 135.294 128.457 135.318C128.46 135.341 128.468 135.364 128.482 135.384C128.496 135.405 128.514 135.421 128.535 135.432C128.556 135.443 128.58 135.449 128.604 135.449C128.628 135.449 128.652 135.443 128.673 135.432C128.694 135.421 128.713 135.405 128.726 135.384C128.74 135.364 128.748 135.341 128.751 135.318C128.753 135.294 128.75 135.269 128.741 135.247C128.741 135.457 128.973 132.046 128.973 126.949C130.605 127.873 132.285 128.709 134.006 129.455C134.175 129.455 134.322 129.287 134.154 129.203C132.671 128.212 131.138 127.298 129.562 126.465C130.605 125.821 131.611 125.118 132.574 124.359C132.602 124.337 132.622 124.306 132.629 124.27C132.636 124.235 132.63 124.198 132.612 124.168C132.594 124.137 132.565 124.113 132.531 124.102C132.497 124.091 132.46 124.092 132.427 124.106C132.427 124.106 130.7 124.991 128.973 126.107C128.973 120.863 128.762 119.789 128.762 118.904C128.762 118.866 128.746 118.828 128.719 118.8C128.691 118.773 128.654 118.757 128.615 118.757C128.576 118.757 128.538 118.773 128.511 118.8C128.483 118.828 128.467 118.866 128.467 118.904C128.467 118.694 128.278 122.295 128.257 125.875C127.646 125.559 126.424 124.906 124.571 124.106C124.403 124.106 124.255 124.275 124.424 124.359C124.592 124.443 125.982 125.433 128.172 126.633C126.876 127.419 125.624 128.277 124.424 129.203C124.255 129.203 124.424 129.561 124.571 129.455C124.361 129.561 125.94 128.781 128.257 127.307ZM181.201 276.118C178.906 275.17 154.687 273.675 154.476 273.654C153.823 273.654 149.106 274.601 148.79 274.686C148.474 274.77 148.79 274.686 148.79 274.791C150.631 275.631 152.532 276.335 154.476 276.897C156.582 277.339 160.794 277.381 180.759 279.529C181.138 279.529 181.938 278.224 181.475 276.328C181.454 276.265 181.306 276.181 181.201 276.118ZM154.371 276.686L151.191 275.57C151.314 275.402 151.394 275.207 151.422 275.001C151.452 274.796 151.431 274.586 151.359 274.391C152.389 274.184 153.43 274.034 154.476 273.948C154.981 274.454 153.634 274.643 154.645 275.296C154.771 275.296 154.792 275.296 154.645 275.444C154.592 275.47 154.545 275.507 154.506 275.552C154.465 275.598 154.437 275.651 154.42 275.709C154.402 275.765 154.395 275.826 154.402 275.884C154.407 275.944 154.427 276.002 154.455 276.054C154.623 276.349 154.813 276.476 154.371 276.686ZM154.623 276.686C155.213 276.37 154.413 275.886 154.813 275.633C155.698 275.022 151.486 275.191 179.306 277.739C179.248 278.173 179.344 278.613 179.58 278.982L154.623 276.686ZM179.327 277.571C178.379 277.465 155.066 275.254 154.918 275.128C154.771 275.001 154.392 274.896 154.581 274.643C154.771 274.391 154.876 274.159 154.581 273.906C154.792 273.906 175.452 275.549 179.853 276.286C179.546 276.663 179.362 277.127 179.327 277.613V277.571ZM180.675 279.024C180.527 278.876 180.506 278.919 180.359 278.497C180.211 278.076 180.359 276.644 181.033 276.644C181.136 277.051 181.157 277.474 181.096 277.89C181.035 278.306 180.892 278.706 180.675 279.066V279.024ZM195.311 216.876C195.288 216.798 195.248 216.726 195.194 216.667C195.139 216.607 195.073 216.56 194.997 216.528C194.924 216.497 194.843 216.483 194.76 216.488C194.68 216.491 194.601 216.512 194.53 216.551C194.458 216.59 194.397 216.642 194.348 216.707C194.301 216.772 194.267 216.848 194.252 216.927C194.235 217.006 194.237 217.088 194.256 217.167C194.276 217.246 194.313 217.318 194.364 217.381C194.574 217.718 194.785 218.055 195.017 218.392C195.048 218.464 195.095 218.529 195.155 218.582C195.215 218.634 195.285 218.673 195.362 218.696C195.438 218.718 195.519 218.726 195.596 218.713C195.675 218.703 195.75 218.673 195.817 218.631C195.883 218.587 195.94 218.529 195.982 218.462C196.024 218.396 196.052 218.32 196.061 218.241C196.071 218.162 196.064 218.082 196.04 218.006C196.017 217.93 195.977 217.86 195.922 217.802C195.817 217.508 195.501 217.192 195.311 216.876ZM169.071 172.144C169.197 171.155 170.355 166.121 169.913 166.016C169.889 166.005 169.862 166.002 169.836 166.002C169.809 166.004 169.783 166.011 169.759 166.023C169.734 166.035 169.713 166.051 169.697 166.072C169.679 166.093 169.667 166.116 169.66 166.142C169.064 167.613 168.605 169.134 168.291 170.691C168.172 171.239 168.095 171.795 168.06 172.355C168.063 172.441 168.088 172.525 168.132 172.599C168.175 172.672 168.239 172.732 168.312 172.776C168.841 173.045 169.411 173.224 169.997 173.303C170.461 173.303 172.103 173.429 171.914 172.987C171.724 172.544 171.471 173.345 169.071 172.144ZM178.527 169.091V167.996C178.527 167.237 177.474 167.132 177.453 167.996V169.196C177.447 169.275 177.458 169.356 177.488 169.429C177.516 169.505 177.56 169.572 177.616 169.627C177.673 169.684 177.742 169.726 177.817 169.752C177.893 169.779 177.974 169.789 178.053 169.78C178.132 169.773 178.209 169.747 178.277 169.707C178.346 169.666 178.406 169.612 178.449 169.545C178.495 169.48 178.525 169.405 178.539 169.328C178.553 169.248 178.548 169.168 178.527 169.091ZM179.917 174.903C179.243 177.43 178.337 177.809 177.242 177.936C177.017 177.953 176.793 177.953 176.568 177.936C176.519 177.918 176.463 177.924 176.415 177.946C176.368 177.971 176.333 178.011 176.315 178.062C176.3 178.113 176.303 178.167 176.326 178.215C176.35 178.262 176.393 178.297 176.442 178.315C178.274 179.368 180.78 178.083 180.317 174.903C180.302 174.861 180.276 174.824 180.241 174.798C180.204 174.771 180.16 174.757 180.116 174.757C180.073 174.757 180.029 174.771 179.994 174.798C179.957 174.824 179.931 174.861 179.917 174.903ZM187.835 201.228C187.823 201.16 187.796 201.093 187.76 201.033C187.721 200.975 187.672 200.923 187.614 200.884C187.556 200.844 187.491 200.816 187.423 200.8C187.354 200.786 187.284 200.784 187.214 200.796C187.145 200.809 187.079 200.835 187.019 200.872C186.961 200.91 186.91 200.96 186.87 201.018C186.83 201.075 186.801 201.141 186.786 201.209C186.771 201.277 186.77 201.349 186.782 201.418C186.872 201.809 186.986 202.197 187.119 202.576C187.126 202.657 187.15 202.736 187.191 202.806C187.231 202.876 187.286 202.936 187.353 202.983C187.419 203.029 187.496 203.06 187.575 203.073C187.656 203.087 187.737 203.081 187.816 203.06C187.893 203.037 187.965 202.997 188.026 202.944C188.088 202.89 188.135 202.825 188.169 202.75C188.2 202.676 188.216 202.595 188.212 202.513C188.209 202.432 188.188 202.353 188.151 202.281C188.025 201.923 187.919 201.565 187.835 201.228ZM167.112 165.953C167.128 165.874 167.126 165.791 167.107 165.712C167.088 165.633 167.051 165.561 166.998 165.498C166.947 165.435 166.882 165.386 166.81 165.351C166.736 165.316 166.656 165.298 166.575 165.298C166.494 165.298 166.414 165.316 166.342 165.351C166.268 165.386 166.203 165.435 166.152 165.498C166.101 165.561 166.064 165.633 166.045 165.712C166.024 165.791 166.022 165.874 166.038 165.953V167.153C166.022 167.232 166.024 167.315 166.045 167.394C166.064 167.471 166.101 167.544 166.152 167.608C166.203 167.669 166.268 167.72 166.342 167.755C166.414 167.79 166.494 167.808 166.575 167.808C166.656 167.808 166.736 167.79 166.81 167.755C166.882 167.72 166.947 167.669 166.998 167.608C167.051 167.544 167.088 167.471 167.107 167.394C167.126 167.315 167.128 167.232 167.112 167.153C167.088 166.753 167.088 166.353 167.112 165.953ZM333.591 254.173C333.591 254.173 333.465 254.194 333.591 254.173V254.173Z" fill="black"/>
<path fill-rule="evenodd" clip-rule="evenodd" d="M344.099 252.825C341.762 251.688 336.202 252.636 333.569 253.183C332.602 252.102 331.382 251.279 330.019 250.788C328.655 250.295 327.19 250.149 325.756 250.361C323.397 250.951 322.829 253.857 322.934 256.3C321.418 256.026 319.775 255.837 318.259 255.689C318.385 255.226 318.785 254.573 318.659 254.11C318.59 253.945 318.487 253.796 318.357 253.675C318.225 253.552 318.069 253.46 317.899 253.404C317.729 253.348 317.549 253.329 317.371 253.35C317.193 253.369 317.021 253.427 316.869 253.52C316.449 253.855 316.061 254.229 315.71 254.636C315.71 253.899 316.321 252.72 315.584 252.53C314.847 252.341 312.551 254.405 311.898 255.142C307.062 254.61 302.183 254.61 297.346 255.142C291.014 255.596 285.047 258.274 280.498 262.702C306.107 233.218 317.353 212.959 317.058 187.708C316.763 162.457 286.753 150.41 274.412 150.095C262.429 149.8 250.066 156.413 249.435 156.413C238.61 158.519 210.221 155.381 204.261 157.866C204.334 155.197 203.855 152.542 202.855 150.067C201.855 147.592 200.354 145.35 198.448 143.482C195.037 139.754 189.582 138.364 184.043 138.596C176.146 138.954 168.311 142.26 164.394 149.126C163.095 151.349 162.332 153.843 162.162 156.413C162.162 157.065 160.814 167.806 164.268 175.935C165.047 177.994 166.293 179.844 167.908 181.337C169.524 182.832 171.463 183.931 173.576 184.549C170.172 189.062 167.05 193.782 164.226 198.68C163.573 200.049 164.057 200.786 165.005 200.786C165.953 200.786 167.216 200.533 168.101 200.575C166.711 204.387 163.173 214.328 162.309 218.266C157.98 221.181 154.08 224.691 150.726 228.69C144.408 235.935 141.46 243.79 134.299 247.981L132.193 249.161C135.058 240.463 140.47 223.194 138.511 223.173C136.553 223.152 131.794 239.768 128.761 251.035C125.518 252.825 123.875 253.962 122.738 257.501C122.367 258.395 122.176 259.354 122.176 260.323C122.176 261.291 122.367 262.249 122.738 263.145C122.873 263.431 123.079 263.68 123.338 263.864C123.596 264.048 123.897 264.162 124.212 264.198C124.465 264.198 124.465 263.966 123.77 265.503C123.439 265.598 123.125 265.747 122.843 265.946L112.713 259.775C112.482 259.775 115.388 259.375 53.7449 267.399C52.5866 266.535 51.3652 265.63 50.1016 264.64C19.8173 241.074 118.715 215.781 126.634 183.58C133.731 154.749 92.9376 148.936 101.993 121.853C111.049 94.7699 170.27 102.351 226.016 99.1083C281.762 95.865 303.938 39.5927 263.355 10.2771C222.773 -19.0386 181.074 22.5972 171.218 33.2326C161.362 43.8679 149.989 57.7885 118.063 56.3986C86.1356 55.0086 44.3522 60.421 29.0416 106.711C21.6706 128.866 28.2834 144.408 38.1184 156.728C41.4126 153.377 45.4867 150.895 49.9752 149.505C52.5866 148.873 55.177 149.21 55.9141 151.8C57.3041 156.56 51.5336 163.952 48.1851 167.638C56.6091 175.767 64.6962 182.632 67.8762 189.729C73.1833 201.649 47.7428 210.474 37.0022 217.444C26.2616 224.415 9.85589 245.981 19.9226 266.914C20.6788 268.518 21.5228 270.079 22.4498 271.59C1.09493 274.349 0.357828 274.349 0.147419 274.475C-0.0631807 274.601 -6.41902e-07 274.98 0.147419 275.191H0C1.89521 277.297 57.6832 357.03 91.9267 397.55L92.5375 397.676C99.9506 394.115 234.482 328.81 227.322 324.787C227.322 324.787 128.971 269.884 126.634 268.494C127 267.866 127.316 267.211 127.581 266.535C127.698 266.526 127.808 266.477 127.893 266.397C127.977 266.316 128.031 266.209 128.045 266.093V264.956C129.351 265.398 131.394 264.134 132.447 263.187C134.553 261.249 137.711 255.858 140.049 255.142C144.71 253.98 149.308 252.574 153.822 250.93C172.587 243.896 180.379 236.019 188.55 223.299C189.901 221.313 191.051 219.196 191.983 216.981C196.751 222.13 202.548 226.221 208.999 228.985C191.983 248.634 194.657 261.102 200.807 267.904C206.43 274.117 215.549 271.927 217.044 271.463C217.044 280.814 220.203 301.579 221.256 303.664C221.804 304.864 219.972 305.77 219.592 308.15C219.394 309.359 219.55 310.6 220.044 311.721C220.537 312.844 221.346 313.797 222.372 314.468C224.71 315.942 228.69 316.026 227.132 313.689C226.612 313.02 226.026 312.407 225.384 311.856C225.995 312.046 226.669 312.299 227.49 312.594C235.177 315.605 236.188 316.974 237.599 316.574C237.788 316.53 237.966 316.444 238.118 316.325C238.271 316.205 238.396 316.053 238.483 315.879C238.652 315.995 238.843 316.075 239.043 316.112C239.245 316.149 239.45 316.144 239.65 316.096C239.849 316.049 240.035 315.96 240.196 315.835C240.36 315.71 240.493 315.552 240.589 315.373C240.661 315.236 240.7 315.085 240.7 314.931C240.7 314.776 240.661 314.626 240.589 314.489C240.856 314.039 240.947 313.506 240.842 312.994C240.842 311.098 233.597 304.907 232.123 303.685C232.334 301.579 233.45 296.904 236.23 284.478C250.593 300.674 298.883 278.16 301.516 277.023C301.958 277.486 319.796 269.884 321.86 268.789C321.649 268.789 344.478 258.469 345.342 254.678C345.342 253.794 344.773 253.225 344.099 252.825ZM262.639 62.1479C262.988 62.1587 263.318 62.3065 263.557 62.5584C263.797 62.8108 263.929 63.1473 263.924 63.4958C263.929 63.6689 263.901 63.8416 263.84 64.0035C263.776 64.1651 263.683 64.3133 263.564 64.4389C263.445 64.5641 263.301 64.6648 263.143 64.7341C262.983 64.8034 262.813 64.8406 262.639 64.8436C262.465 64.8406 262.293 64.8038 262.134 64.7345C261.974 64.6652 261.828 64.5653 261.707 64.44C261.586 64.3148 261.492 64.167 261.426 64.0051C261.363 63.8431 261.331 63.6696 261.333 63.4958C261.331 63.3216 261.363 63.1481 261.426 62.9861C261.492 62.8242 261.586 62.6764 261.707 62.5512C261.828 62.4259 261.974 62.326 262.134 62.2567C262.293 62.1874 262.465 62.1506 262.639 62.1479ZM250.74 25.3771C250.911 25.377 251.079 25.411 251.237 25.4768C251.395 25.5426 251.537 25.6391 251.657 25.7607C251.776 25.8822 251.871 26.0263 251.934 26.1846C251.997 26.3429 252.028 26.5122 252.025 26.6828C252.048 26.8638 252.034 27.0477 251.979 27.2223C251.926 27.397 251.837 27.5582 251.716 27.6953C251.595 27.8324 251.447 27.9423 251.281 28.0173C251.114 28.0928 250.933 28.1314 250.751 28.1314C250.568 28.1314 250.388 28.0928 250.221 28.0173C250.056 27.9423 249.907 27.8324 249.786 27.6953C249.666 27.5582 249.577 27.397 249.522 27.2223C249.47 27.0477 249.454 26.8638 249.477 26.6828C249.475 26.514 249.505 26.3464 249.566 26.1895C249.629 26.0326 249.721 25.8894 249.838 25.7681C249.956 25.6469 250.096 25.55 250.25 25.4828C250.405 25.4157 250.572 25.3798 250.74 25.3771ZM211.147 83.4817C210.997 83.4542 210.861 83.3749 210.763 83.2577C210.665 83.1402 210.612 82.9924 210.612 82.8392C210.612 82.6864 210.665 82.5382 210.763 82.4211C210.861 82.3035 210.997 82.2243 211.147 82.1971C211.323 82.1971 211.493 82.2668 211.616 82.3912C211.741 82.5157 211.811 82.6845 211.811 82.8603C211.811 83.0364 211.741 83.2053 211.616 83.3293C211.493 83.4538 211.323 83.5238 211.147 83.5238V83.4817ZM205.419 25.6298C205.419 24.7874 207.525 24.3662 208.452 24.2399C209.982 24.0375 211.533 24.0375 213.064 24.2399C214.013 22.4979 215.181 20.8841 216.539 19.4382C216.981 19.0802 217.381 18.9538 217.781 19.4382C218.734 21.3615 219.347 23.4347 219.592 25.5666C222.857 26.409 227.406 27.9676 224.668 29.9261C223.826 30.5369 222.33 31.1687 220.709 32.0321C220.891 33.7315 220.947 35.442 220.877 37.1497C220.877 37.9289 220.667 39.1083 219.887 39.2557C218.308 39.5295 217.086 37.3393 214.601 35.1911C212.221 36.3705 207.462 38.9819 207.357 36.4758C207.615 34.338 208.25 32.263 209.231 30.3473C206.809 28.0518 205.272 26.9355 205.419 25.6719V25.6298ZM203.313 64.3592C203.308 65.8292 202.925 67.2732 202.199 68.5513C201.474 69.8299 200.431 70.8997 199.171 71.6579C197.911 72.4157 196.477 72.8357 195.009 72.8782C193.539 72.9203 192.083 72.583 190.782 71.8987L203.039 62.169C203.227 62.8984 203.327 63.6478 203.334 64.4014L203.313 64.3592ZM202.787 61.3898C199.417 63.9802 194.889 67.7078 190.361 71.646C190.021 71.4404 189.696 71.208 189.392 70.951C193.794 66.5074 198.111 61.4951 200.786 58.315C201.667 59.2041 202.355 60.2652 202.808 61.4319L202.787 61.3898ZM200.323 57.8728C199.48 58.7784 192.151 67.0339 188.992 70.5088C188.094 69.6828 187.376 68.6788 186.886 67.5604C190.087 65.2438 194.447 62.0216 199.291 58.2097L200.049 57.599L200.323 57.8728ZM194.784 55.7668C196.474 55.7649 198.125 56.2711 199.522 57.2199L196.553 59.3259C195.879 59.8313 190.761 63.8538 186.718 67.0128C186.29 65.7293 186.17 64.3623 186.371 63.0237C186.572 61.6854 187.087 60.4138 187.874 59.3125C188.661 58.2113 189.696 57.3122 190.898 56.6884C192.098 56.0651 193.431 55.7346 194.784 55.7246V55.7668ZM174.482 52.3129C174.738 52.3045 174.991 52.3727 175.207 52.5086C175.424 52.6445 175.595 52.8421 175.698 53.0761C175.802 53.31 175.833 53.5693 175.79 53.8212C175.744 54.0732 175.626 54.306 175.447 54.4898C175.27 54.6739 175.042 54.8003 174.791 54.8535C174.54 54.9068 174.28 54.8838 174.043 54.7877C173.806 54.6919 173.603 54.5277 173.459 54.3152C173.317 54.1034 173.239 53.8534 173.239 53.5976C173.26 53.2771 173.404 52.9769 173.638 52.7579C173.873 52.5388 174.182 52.4175 174.503 52.4182L174.482 52.3129ZM162.878 84.1978C163.369 84.2142 163.847 84.3751 164.247 84.6603C164.647 84.9456 164.956 85.3427 165.133 85.8018C165.309 86.2609 165.347 86.7617 165.242 87.2423C165.135 87.7228 164.891 88.1613 164.536 88.5036C164.184 88.8455 163.736 89.076 163.254 89.166C162.769 89.256 162.269 89.202 161.816 89.0098C161.363 88.818 160.977 88.4971 160.705 88.087C160.433 87.6769 160.288 87.1959 160.288 86.7039C160.305 86.0296 160.586 85.389 161.07 84.9203C161.555 84.4516 162.204 84.192 162.878 84.1978ZM130.109 78.2588C131.014 78.2588 131.014 79.8805 130.109 79.8805C129.203 79.8805 129.182 78.2588 130.109 78.2588ZM44.4575 124.823C44.3579 124.84 44.2553 124.836 44.1573 124.809C44.0593 124.783 43.9681 124.736 43.8904 124.67C43.8127 124.605 43.7502 124.523 43.7074 124.432C43.6645 124.34 43.6423 124.239 43.6423 124.138C43.6423 124.036 43.6645 123.936 43.7074 123.844C43.7502 123.752 43.8127 123.671 43.8904 123.606C43.9681 123.541 44.0593 123.493 44.1573 123.467C44.2553 123.44 44.3579 123.436 44.4575 123.454C44.5578 123.436 44.66 123.44 44.7584 123.467C44.8561 123.493 44.9472 123.541 45.025 123.606C45.1027 123.671 45.1651 123.752 45.208 123.844C45.2513 123.936 45.2731 124.036 45.2731 124.138C45.2731 124.239 45.2513 124.34 45.208 124.432C45.1651 124.523 45.1027 124.605 45.025 124.67C44.9472 124.736 44.8561 124.783 44.7584 124.809C44.66 124.836 44.5578 124.84 44.4575 124.823ZM89.7365 207.504C89.4539 207.471 89.1863 207.358 88.9665 207.176C88.7471 206.995 88.5847 206.753 88.4989 206.483C88.4135 206.211 88.4086 205.919 88.4848 205.645C88.561 205.37 88.7153 205.124 88.9286 204.935C89.1418 204.747 89.4053 204.624 89.6871 204.582C89.9689 204.54 90.2569 204.58 90.5161 204.698C90.7753 204.815 90.9947 205.007 91.1479 205.247C91.3014 205.486 91.3815 205.766 91.3792 206.051C91.3524 206.46 91.1644 206.842 90.8569 207.114C90.5494 207.388 90.147 207.527 89.7365 207.504ZM94.7277 66.6548C95.0164 66.6506 95.299 66.7321 95.541 66.8891C95.7826 67.0465 95.9722 67.2717 96.0855 67.537C96.1985 67.802 96.2306 68.0949 96.1766 68.3783C96.123 68.6612 95.9863 68.9224 95.7842 69.1276C95.5816 69.3329 95.3228 69.4734 95.0402 69.5312C94.758 69.589 94.4647 69.5614 94.1978 69.4523C93.9313 69.3428 93.7031 69.1567 93.5422 68.9174C93.3818 68.6777 93.296 68.3959 93.2956 68.1079C93.2956 67.7258 93.4461 67.3593 93.7142 67.0879C93.9822 66.8156 94.3463 66.6601 94.7277 66.6548ZM95.9492 142.281C95.9473 142.487 95.8864 142.688 95.7738 142.86C95.6609 143.032 95.5012 143.168 95.3132 143.252C95.1256 143.336 94.9176 143.364 94.7143 143.333C94.511 143.302 94.3207 143.214 94.166 143.078C94.0117 142.942 93.8995 142.765 93.8428 142.567C93.7865 142.369 93.7877 142.159 93.8466 141.962C93.906 141.765 94.0205 141.589 94.1767 141.455C94.3329 141.321 94.524 141.235 94.7277 141.207C94.8759 141.195 95.0245 141.214 95.165 141.263C95.3051 141.312 95.4338 141.389 95.5425 141.49C95.6513 141.591 95.7382 141.713 95.7972 141.85C95.8565 141.986 95.8868 142.133 95.886 142.281H95.9492ZM96.4336 173.387C97.6972 172.397 101.425 169.322 102.541 170.291C103.657 171.26 102.688 173.303 102.541 176.209C104.879 177.325 109.722 179.452 107.827 180.8C105.971 181.707 103.979 182.304 101.93 182.569C101.572 185.623 101.593 187.181 100.561 187.708C99.8453 188.045 98.2658 186.76 97.6761 186.212C96.5435 185.245 95.551 184.126 94.7277 182.885C92.8044 183.117 90.86 183.117 88.9362 182.885C88.4308 182.759 88.0517 182.527 88.157 182.021C88.3886 180.863 91.0001 178.399 91.8636 177.578C91.316 176.377 90.0313 173.366 90.4736 172.165C91.1054 170.502 93.8221 172.334 96.3704 173.387H96.4336ZM89.5891 105.532C90.0313 105.532 90.263 105.847 90.1998 106.395C89.7595 107.958 89.0924 109.448 88.2202 110.818C89.1235 111.763 89.8954 112.826 90.5157 113.977C92.6217 118.041 89.6944 117.009 85.356 116.083C84.3333 117.604 83.0329 118.918 81.5231 119.958C79.5645 120.926 79.1223 116.799 78.7853 114.461C75.8158 113.682 73.4571 113.787 72.8464 112.587C72.2356 111.386 76.7846 109.554 78.0903 108.964C77.9429 106.858 77.0373 104.036 78.8485 104.121C80.6841 104.675 82.3697 105.64 83.7765 106.943C85.6275 106.168 87.5895 105.691 89.5891 105.532ZM62.7586 164.373C62.5239 164.411 62.2838 164.398 62.0548 164.333C61.8255 164.269 61.613 164.156 61.4318 164.002C61.2507 163.848 61.1052 163.656 61.0053 163.44C60.9057 163.224 60.854 162.989 60.854 162.752C60.854 162.513 60.9057 162.279 61.0053 162.062C61.1052 161.847 61.2507 161.655 61.4318 161.501C61.613 161.346 61.8255 161.233 62.0548 161.169C62.2838 161.105 62.5239 161.092 62.7586 161.13C62.9937 161.092 63.2342 161.105 63.4632 161.169C63.6922 161.233 63.9047 161.346 64.0858 161.501C64.2669 161.655 64.4124 161.847 64.5123 162.062C64.6119 162.279 64.6636 162.513 64.6636 162.752C64.6636 162.989 64.6119 163.224 64.5123 163.44C64.4124 163.656 64.2669 163.848 64.0858 164.002C63.9047 164.156 63.6922 164.269 63.4632 164.333C63.2342 164.398 62.9937 164.411 62.7586 164.373ZM50.8808 100.751C50.8034 100.731 50.7345 100.687 50.6851 100.624C50.6361 100.561 50.6093 100.483 50.6093 100.403C50.6093 100.323 50.6361 100.245 50.6851 100.183C50.7345 100.12 50.8034 100.075 50.8808 100.056C55.4929 99.7401 60.7369 99.5926 65.349 99.5926C61.5054 96.8966 57.3906 94.6095 53.071 92.7692C52.9799 92.7409 52.9025 92.6792 52.8543 92.5965C52.8064 92.5134 52.7919 92.4154 52.8129 92.3223C52.8344 92.2289 52.8903 92.147 52.9695 92.0934C53.0484 92.0394 53.1449 92.0175 53.2395 92.0321C58.027 92.083 62.736 93.2513 66.9917 95.4438C64.1926 92.6543 61.232 90.031 58.1254 87.5884C58.0592 87.5344 58.014 87.4582 57.9987 87.374C57.9834 87.2898 57.9991 87.2028 58.042 87.1289C58.0856 87.055 58.1538 86.9991 58.2349 86.9716C58.3157 86.9436 58.4042 86.9459 58.4834 86.9777C63.7925 88.6893 68.7757 91.2808 73.2255 94.6435C77.6186 97.8623 81.4289 101.808 84.4925 106.311C84.4925 106.5 84.303 106.648 84.1767 106.458C81.1153 101.985 77.3119 98.0675 72.9306 94.8752C69.028 92.0126 64.7287 89.7354 60.1682 88.1149C61.7056 89.3575 67.9394 94.4329 68.7607 96.3073C68.9292 96.6442 68.508 96.9601 68.15 96.7495C65.9012 95.4967 63.5118 94.5141 61.0317 93.8222C59.0995 93.244 57.1065 92.8906 55.0928 92.7692C57.5147 93.9275 65.0331 97.613 66.5705 99.8032C66.6103 99.8618 66.6321 99.9304 66.6348 100.001C66.6375 100.071 66.6203 100.141 66.585 100.203C66.5502 100.263 66.4989 100.314 66.4365 100.348C66.3744 100.381 66.3044 100.397 66.2335 100.393C66.0019 100.393 60.1893 100.393 54.0187 100.604C61.3055 101.993 70.8667 104.668 76.9531 109.028C77.1215 109.154 76.9531 109.407 76.7425 109.28C70.1296 104.668 58.694 101.804 50.8808 100.751ZM170.123 144.24C177.304 138.827 191.541 137.395 197.774 144.24C199.61 146.03 201.053 148.183 202.011 150.561C202.967 152.94 203.418 155.492 203.334 158.055C202.843 162.7 200.847 167.057 197.648 170.46C197.269 170.839 197.269 170.46 197.395 170.27C197.759 169.749 197.997 169.154 198.097 168.527C198.197 167.901 198.155 167.26 197.973 166.653C197.79 166.046 197.474 165.487 197.046 165.02C196.618 164.552 196.09 164.187 195.5 163.952C191.519 162.141 190.319 168.817 187.413 169.638C184.886 170.375 185.833 164.479 186.023 160.54C186.288 158.809 185.89 157.041 184.907 155.591C183.157 153.714 180.995 152.272 178.589 151.379C174.371 149.681 169.792 149.079 165.279 149.631C166.511 147.524 168.159 145.69 170.123 144.24ZM165.131 175.64C161.656 167.427 163.173 156.518 163.173 156.518C163.343 154.303 163.982 152.149 165.047 150.2C169.598 149.737 174.191 150.463 178.378 152.306C180.656 153.159 182.71 154.52 184.38 156.286C186.486 159.066 184.38 164.373 185.054 168.522C185.307 170.144 186.065 171.176 187.644 170.628C190.909 169.701 192.004 163.51 195.142 164.942C198.28 166.374 197.711 170.481 194.005 172.039C192.572 172.65 192.699 174.019 193.794 174.145C194.363 174.145 195.479 173.829 197.185 172.46C199.684 170.019 201.647 167.087 202.955 163.847C205.884 164.465 208.717 165.47 211.379 166.837C215.128 168.543 219.55 170.923 223.046 172.966C217.718 174.236 212.862 176.995 209.043 180.923C205.224 184.849 202.602 189.78 201.481 195.142C200.681 195.142 200.744 194.005 200.196 193.583C199.649 193.162 199.312 193.583 198.659 193.794C198.673 193.274 198.557 192.762 198.322 192.299C198.322 191.077 196.321 191.793 195.163 192.172C195.177 191.649 195.098 191.13 194.931 190.635C195.416 189.077 192.594 189.856 191.014 190.298C191.134 189.7 191.134 189.085 191.014 188.487C191.161 187.265 188.487 188.045 187.371 188.487C187.467 187.783 187.424 187.067 187.244 186.381C186.655 185.56 183.538 187.286 183.411 186.507C183.422 185.93 183.536 185.359 183.748 184.822C184.106 183.538 182.358 184.338 181.853 184.254C181.834 184.264 181.813 184.271 181.79 184.271C181.767 184.271 181.746 184.264 181.727 184.254V184.001C183.489 183.518 185.18 182.811 186.76 181.895C187.564 183.078 188.768 183.931 190.151 184.296C191.407 184.67 192.744 184.673 194.003 184.306C195.261 183.938 196.386 183.213 197.242 182.221C198.099 181.23 198.65 180.01 198.831 178.713C199.011 177.415 198.813 176.091 198.259 174.903C198.259 174.672 197.795 174.903 197.901 175.051C198.174 175.858 198.28 176.711 198.215 177.56C198.15 178.41 197.913 179.236 197.52 179.993C197.125 180.747 196.583 181.416 195.924 181.956C195.266 182.497 194.507 182.899 193.689 183.138L188.592 180C188.403 179.873 188.424 180 187.307 180.716C186.607 179.333 186.42 177.748 186.778 176.239C187.137 174.731 188.018 173.401 189.266 172.481C190.738 171.495 192.488 171.007 194.257 171.091C194.299 171.077 194.336 171.051 194.363 171.014C194.389 170.979 194.403 170.935 194.403 170.891C194.403 170.847 194.389 170.803 194.363 170.769C194.336 170.731 194.299 170.705 194.257 170.691C192.362 170.461 190.442 170.869 188.803 171.85C187.314 172.837 186.246 174.345 185.807 176.077C185.367 177.808 185.586 179.642 186.423 181.221C182.69 183.345 178.408 184.306 174.124 183.98C172.07 183.403 170.184 182.346 168.62 180.897C167.057 179.445 165.862 177.644 165.131 175.64ZM197.922 194.342C198.475 194.222 199.013 194.04 199.522 193.794C200.449 193.457 200.196 195.31 201.376 195.331C201.165 196.321 201.039 197.1 200.975 197.585C199.986 197.227 199.059 196.827 198.132 196.448C198.173 195.738 198.102 195.028 197.922 194.342ZM197.922 193.878C197.922 193.878 197.922 193.773 198.132 193.057C198.185 193.322 198.292 193.573 198.448 193.794L197.922 193.857V193.878ZM197.711 194.278C197.604 194.977 197.604 195.686 197.711 196.384C196.237 195.774 194.868 195.142 193.499 194.51C193.499 194.111 193.42 193.719 193.267 193.352C194.236 193.352 197.479 191.793 197.627 192.257C197.774 192.72 197.016 193.857 197.711 194.278ZM193.057 193.204C193.053 193.533 193.102 193.861 193.204 194.173C192.657 193.92 190.403 192.783 189.835 192.488C189.824 192.039 189.754 191.592 189.624 191.162C190.886 190.988 192.134 190.712 193.352 190.34C193.499 190.34 194.447 190.214 194.363 190.34C194.278 190.951 192.13 192.72 193.057 193.204ZM189.371 192.236C188.297 191.667 187.265 191.119 186.465 190.614C186.479 190.166 186.4 189.723 186.233 189.308C186.574 189.366 186.922 189.306 187.223 189.14C188.192 188.699 189.236 188.448 190.298 188.403C189.852 188.917 189.471 189.482 189.161 190.087C189.078 190.81 189.15 191.542 189.371 192.236ZM185.981 190.34L183.643 188.929C183.691 188.304 183.627 187.678 183.454 187.076C184.127 187.223 185.875 186.528 186.676 186.592C186.295 187.107 185.951 187.65 185.644 188.213C185.644 188.936 185.758 189.654 185.981 190.34ZM186.886 187.286C186.834 187.706 186.834 188.13 186.886 188.55C186.739 188.55 186.254 188.782 186.212 188.55C186.17 188.318 186.634 187.539 186.886 187.286ZM190.593 189.098C190.581 189.51 190.63 189.922 190.74 190.319C190.417 190.439 190.075 190.503 189.729 190.509C189.729 190.509 189.645 190.214 190.593 189.098ZM194.636 191.204C194.664 191.549 194.742 191.89 194.868 192.215C194.449 192.374 194.02 192.507 193.583 192.615C193.836 192.236 194.173 191.751 194.636 191.183V191.204ZM183.032 186.823C183.022 187.455 183.101 188.087 183.264 188.698C182.906 188.478 182.553 188.246 182.211 188.003L181.727 184.464C182.253 184.464 183.348 184.149 183.348 184.464C183.348 184.78 182.464 186.17 183.032 186.802V186.823ZM187.539 181.137C187.834 180.947 188.15 180.716 188.445 180.484L193.078 183.327C192.049 183.534 190.984 183.447 190.005 183.073C189.026 182.701 188.171 182.058 187.539 181.221V181.137ZM164.984 199.838C164.478 199.691 167.385 195.184 167.722 194.657C168.754 192.994 173.745 185.286 174.166 184.654C175.907 184.756 177.653 184.651 179.368 184.338C179.705 196.806 181.958 201.986 184.696 206.851C183.285 206.409 181.853 207.062 180.61 206.62C178.862 206.03 178.926 203.503 176.398 203.355C174.747 203.55 173.159 204.103 171.744 204.977C171.176 205.209 171.049 204.977 170.902 204.724C170.693 203.299 170.384 201.891 169.975 200.512C169.006 198.848 165.974 200.175 164.984 199.838ZM112.482 260.323L122.422 266.325C121.843 266.872 121.215 267.365 120.547 267.799C118.926 268.662 117.241 268.009 117.22 269.294C108.143 272.769 94.475 288.796 111.513 303.432C133.289 322.113 158.076 329.568 135.016 347.385C128.698 352.334 122.19 351.597 114.672 346.732C106.416 341.319 106.5 317.479 98.5817 302.758C85.4192 278.266 79.9857 286.521 54.5452 268.115L112.482 260.323ZM141.734 348.775C141.706 348.775 141.679 348.769 141.653 348.759C141.628 348.748 141.604 348.732 141.584 348.713C141.565 348.694 141.549 348.669 141.539 348.645C141.528 348.618 141.523 348.592 141.523 348.564C141.523 348.536 141.528 348.51 141.539 348.483C141.549 348.457 141.565 348.434 141.584 348.415C141.604 348.395 141.628 348.38 141.653 348.369C141.679 348.359 141.706 348.353 141.734 348.353C141.776 348.367 141.813 348.394 141.839 348.43C141.865 348.466 141.879 348.51 141.879 348.553C141.879 348.597 141.865 348.641 141.839 348.676C141.813 348.713 141.776 348.739 141.734 348.754V348.775ZM130.951 355.093C130.863 355.108 130.772 355.107 130.685 355.084C130.598 355.061 130.517 355.019 130.448 354.963C130.379 354.905 130.324 354.833 130.285 354.752C130.248 354.671 130.228 354.582 130.228 354.492C130.228 354.403 130.248 354.313 130.285 354.233C130.324 354.152 130.379 354.08 130.448 354.022C130.517 353.964 130.598 353.924 130.685 353.901C130.772 353.878 130.863 353.876 130.951 353.892C131.122 353.892 131.285 353.961 131.405 354.08C131.526 354.201 131.593 354.364 131.593 354.534C131.593 354.705 131.526 354.868 131.405 354.989C131.285 355.108 131.122 355.177 130.951 355.177V355.093ZM103.826 353.618C104.042 352.993 104.362 352.409 104.773 351.891C103.826 350.586 103.257 349.933 104.9 350.017C105.381 350.052 105.856 350.152 106.311 350.312C107.996 348.459 108.291 348.585 108.228 351.112C108.649 351.323 109.638 351.828 109.828 352.249C110.017 352.671 108.943 352.923 108.185 353.155C108.185 353.661 107.996 355.261 107.511 355.261C107.027 355.261 106.753 354.482 106.122 353.682C105.258 353.913 103.72 354.461 103.826 353.703V353.618ZM103.552 326.788C103.464 326.804 103.373 326.802 103.286 326.779C103.199 326.756 103.118 326.714 103.049 326.658C102.98 326.6 102.925 326.528 102.886 326.448C102.848 326.367 102.829 326.277 102.829 326.188C102.829 326.098 102.848 326.009 102.886 325.928C102.925 325.847 102.98 325.775 103.049 325.717C103.118 325.66 103.199 325.619 103.286 325.596C103.373 325.573 103.464 325.572 103.552 325.588C103.723 325.588 103.886 325.656 104.006 325.775C104.127 325.897 104.194 326.06 104.194 326.23C104.194 326.4 104.127 326.563 104.006 326.684C103.886 326.804 103.723 326.872 103.552 326.872V326.788ZM78.1114 296.251C78.0233 296.267 77.9326 296.265 77.8456 296.242C77.7587 296.219 77.6779 296.177 77.6086 296.121C77.5397 296.063 77.4842 295.991 77.4459 295.911C77.408 295.83 77.388 295.74 77.388 295.651C77.388 295.561 77.408 295.472 77.4459 295.391C77.4842 295.31 77.5397 295.238 77.6086 295.18C77.6779 295.123 77.7587 295.082 77.8456 295.059C77.9326 295.036 78.0233 295.035 78.1114 295.051C78.1998 295.035 78.2906 295.036 78.3775 295.059C78.4644 295.082 78.5452 295.123 78.6145 295.18C78.6834 295.238 78.739 295.31 78.7772 295.391C78.8155 295.472 78.8354 295.561 78.8354 295.651C78.8354 295.74 78.8155 295.83 78.7772 295.911C78.739 295.991 78.6834 296.063 78.6145 296.121C78.5452 296.177 78.4644 296.219 78.3775 296.242C78.2906 296.265 78.1998 296.267 78.1114 296.251ZM69.6874 283.109C69.5993 283.125 69.5085 283.123 69.4216 283.101C69.3347 283.078 69.2539 283.036 69.1846 282.98C69.1157 282.921 69.0602 282.849 69.0219 282.769C68.984 282.688 68.9641 282.599 68.9641 282.509C68.9641 282.42 68.984 282.33 69.0219 282.249C69.0602 282.169 69.1157 282.097 69.1846 282.039C69.2539 281.981 69.3347 281.94 69.4216 281.918C69.5085 281.895 69.5993 281.891 69.6874 281.909C69.7747 281.888 69.865 281.888 69.9527 281.906C70.04 281.925 70.1223 281.962 70.1939 282.014C70.2656 282.069 70.3241 282.137 70.3663 282.216C70.4084 282.295 70.4329 282.383 70.4375 282.47C70.4421 282.56 70.4271 282.65 70.3934 282.732C70.3601 282.816 70.3084 282.89 70.2433 282.951C70.1779 283.011 70.0998 283.057 70.0148 283.085C69.9297 283.113 69.8394 283.12 69.7505 283.109H69.6874ZM44.984 278.897C45.0724 278.882 45.1632 278.883 45.2501 278.906C45.337 278.929 45.4178 278.969 45.4871 279.027C45.556 279.085 45.6116 279.157 45.6499 279.238C45.6881 279.319 45.7081 279.408 45.7081 279.498C45.7081 279.587 45.6881 279.677 45.6499 279.758C45.6116 279.838 45.556 279.91 45.4871 279.968C45.4178 280.024 45.337 280.066 45.2501 280.089C45.1632 280.112 45.0724 280.114 44.984 280.098C44.8955 280.108 44.8055 280.101 44.7205 280.073C44.6352 280.045 44.5574 280 44.4919 279.94C44.4265 279.879 44.3752 279.805 44.3415 279.72C44.3081 279.638 44.2932 279.548 44.2974 279.459C44.3024 279.371 44.3265 279.283 44.3686 279.205C44.4108 279.126 44.4697 279.057 44.541 279.003C44.6126 278.95 44.6949 278.913 44.7826 278.894C44.8699 278.876 44.9606 278.876 45.0472 278.897H44.984ZM31.1054 236.777C31.9766 236.076 32.9691 235.54 34.0328 235.198C34.0328 232.46 33.8222 230.986 35.9914 232.608C36.6251 233.123 37.1914 233.718 37.6762 234.377C38.6541 234.08 39.6669 233.919 40.6877 233.892C40.9826 233.892 41.1721 234.061 41.1511 234.356C40.7915 235.442 40.2501 236.46 39.5505 237.367C40.1582 238.311 40.5334 239.387 40.6456 240.505C40.4561 241.537 38.8345 240.631 37.5287 240.252C36.9601 240.926 35.2121 243.159 34.5593 242.653C33.9064 242.148 34.2644 240.842 34.1802 239.073C32.8955 238.61 30.2841 237.767 31.1686 236.777H31.1054ZM23.3554 255.352C23.4438 255.335 23.5346 255.338 23.6215 255.361C23.7084 255.384 23.7892 255.424 23.8585 255.482C23.9274 255.54 23.9829 255.612 24.0212 255.693C24.0595 255.774 24.0794 255.863 24.0794 255.952C24.0794 256.042 24.0595 256.132 24.0212 256.212C23.9829 256.293 23.9274 256.365 23.8585 256.423C23.7892 256.479 23.7084 256.521 23.6215 256.544C23.5346 256.567 23.4438 256.569 23.3554 256.553C23.2669 256.563 23.1769 256.556 23.0919 256.528C23.0065 256.5 22.9288 256.454 22.8633 256.395C22.7978 256.333 22.7465 256.26 22.7128 256.175C22.6795 256.093 22.6646 256.003 22.6688 255.914C22.6738 255.826 22.6979 255.738 22.74 255.659C22.7821 255.581 22.8411 255.512 22.9123 255.458C22.9839 255.405 23.0663 255.368 23.1539 255.349C23.2412 255.331 23.332 255.331 23.4185 255.352H23.3554ZM226.479 325.293C218.771 335.338 103.678 391.189 92.4743 396.6C66.1703 365.37 25.2297 308.424 1.22129 275.191L22.9131 272.348C36.4336 293.682 57.1567 288.733 68.2764 295.514C80.786 303.159 87.2303 308.929 91.0212 323.755C96.1809 343.91 89.6737 352.608 104.753 359.031C119.2 365.159 147.883 362.695 159.508 342.751C171.133 322.808 148.368 314.089 127.918 304.843C107.469 295.598 111.07 282.794 113.85 279.171C115.973 276.416 118.436 273.938 121.179 271.8C122.217 271.804 123.238 271.535 124.139 271.021C125.041 270.509 125.792 269.768 126.318 268.873C128.782 270.2 222.246 322.871 226.542 325.293H226.479ZM148.557 350.122C148.585 350.122 148.611 350.128 148.638 350.138C148.664 350.149 148.687 350.165 148.706 350.184C148.726 350.203 148.741 350.226 148.752 350.252C148.762 350.279 148.768 350.305 148.768 350.333C148.768 350.361 148.762 350.387 148.752 350.414C148.741 350.438 148.726 350.463 148.706 350.482C148.687 350.502 148.664 350.517 148.638 350.528C148.611 350.538 148.585 350.544 148.557 350.544C148.529 350.542 148.503 350.535 148.478 350.524C148.452 350.512 148.431 350.495 148.412 350.475C148.392 350.454 148.378 350.43 148.369 350.403C148.361 350.377 148.355 350.351 148.357 350.322C148.359 350.294 148.366 350.268 148.378 350.242C148.389 350.217 148.406 350.194 148.427 350.177C148.446 350.158 148.471 350.143 148.497 350.135C148.524 350.126 148.55 350.121 148.578 350.122H148.557ZM153.948 328.789C153.696 328.957 153.317 328.789 152.727 328.494C151.8 329.526 151.358 329.821 151.463 328.073C150.558 327.778 150.052 327.63 150.895 327.146C151.147 327.009 151.416 326.902 151.695 326.83C151.927 325.377 152.116 325.356 152.917 326.577C153.304 326.482 153.708 326.482 154.096 326.577C154.391 326.746 153.906 327.146 153.569 327.546C153.696 327.841 154.201 328.641 153.97 328.789H153.948ZM122.864 270.537C122.052 270.805 121.18 270.838 120.349 270.633C119.519 270.428 118.763 269.994 118.167 269.378H118.357C122.337 268.768 121.748 267.125 123.812 266.114C124.001 266.325 123.812 266.261 127.16 266.514C126.315 268.369 124.771 269.815 122.864 270.537ZM127.729 262.113C127.424 262.679 127.306 263.329 127.392 263.966C127.392 264.113 127.244 264.787 127.16 265.419L124.886 265.23C124.886 265.124 126.381 261.565 126.486 261.228H127.918L127.729 262.113ZM127.308 256.195C125.855 258.912 125.202 263.966 123.917 263.081C123.469 262.616 123.213 262 123.201 261.355C123.133 260.14 123.305 258.924 123.707 257.774C124.05 256.569 124.654 255.452 125.477 254.507C126.299 253.56 127.32 252.806 128.466 252.299C127.35 256.595 127.666 255.626 127.308 256.279V256.195ZM128.824 259.375C129.161 258.385 129.625 256.932 130.277 255.037C130.551 254.889 130.614 255.037 130.972 255.921C131.541 257.395 128.213 261.144 128.213 261.144C128.424 260.533 128.655 259.943 128.824 259.459V259.375ZM188.297 222.878C180.863 234.061 175.345 239.073 166.669 243.938C158.211 248.438 149.217 251.848 139.901 254.089C136.153 255.247 133.015 263.566 128.908 263.945C128.445 263.945 128.129 263.945 128.508 262.892C129.456 260.259 132.888 258.069 131.899 255.563C131.773 255.185 131.604 254.826 131.393 254.489C131.223 254.213 130.962 254.005 130.656 253.899C130.782 253.478 131.204 252.257 131.772 250.53C132.257 250.193 132.594 250.087 134.805 248.782C142.218 244.401 145.124 236.546 151.358 229.196C154.65 225.168 158.494 221.623 162.773 218.666C163.088 218.476 162.562 218.792 165.005 211.084C166.416 206.641 168.059 201.944 168.543 200.554C168.634 200.567 168.722 200.6 168.798 200.651C168.875 200.702 168.94 200.77 168.985 200.849C169.533 201.881 169.428 203.861 169.891 205.061C170.986 207.715 173.703 204.156 176.209 204.219C178.315 204.219 178.315 206.641 180.421 207.251C182 207.715 183.58 206.746 185.054 207.441C186.986 210.724 189.259 213.796 191.835 216.602C190.879 218.838 189.693 220.97 188.297 222.962V222.878ZM201.228 223.552C194.854 218.994 189.526 213.129 185.602 206.346C183.011 201.839 180.61 196.806 179.789 184.17C180.286 184.083 180.779 183.969 181.263 183.833L181.706 188.045C184.026 189.801 186.476 191.377 189.034 192.762C189.034 192.762 187.244 202.892 195.352 215.928C199.249 222.33 201.228 223.636 201.228 223.636V223.552ZM240.379 250.719C240.758 255.31 236.588 280.372 236.019 283.783C235.986 283.796 235.956 283.815 235.93 283.841C235.905 283.866 235.884 283.898 235.872 283.931C236.146 282.899 231.407 298.841 231.049 303.833C231.049 304.233 231.049 304.043 234.65 307.16C235.872 308.234 240.063 311.793 240.273 313.036C240.37 313.359 240.37 313.703 240.273 314.026C238.392 312.032 236.148 310.417 233.661 309.266C233.617 309.238 233.562 309.229 233.511 309.242C233.459 309.252 233.415 309.284 233.387 309.329C233.359 309.373 233.35 309.428 233.362 309.478C233.375 309.531 233.406 309.575 233.45 309.603L235.156 310.993C236.862 312.151 238.431 313.501 239.831 315.015C239.621 315.542 239.157 315.584 238.61 315.437C238.61 314.341 233.808 311.688 232.292 310.782C232.06 310.656 231.849 310.993 232.081 311.119C234.196 312.341 236.167 313.795 237.957 315.458C237.283 316.974 235.24 314.805 227.806 311.751C226.467 311.149 225.049 310.737 223.594 310.53C223.495 310.523 223.397 310.547 223.315 310.602C223.23 310.654 223.166 310.731 223.131 310.824C222.941 311.372 223.531 311.351 225.426 313.267C225.83 313.62 226.177 314.032 226.458 314.489C225.196 314.638 223.922 314.34 222.857 313.647C222.012 313.081 221.347 312.29 220.937 311.361C220.526 310.433 220.389 309.406 220.54 308.403C220.898 306.297 222.983 305.223 222.12 303.348C221.256 301.474 219.487 289.301 219.234 287.553C216.897 271.737 217.781 271.4 217.339 271.274C217.339 249.329 218.034 249.245 217.866 248.108C217.866 247.876 213.148 215.486 213.106 215.233C214.496 215.233 215.486 216.771 216.265 218.034C217.402 219.845 218.371 221.025 220.645 220.33C222.92 219.635 224.857 217.718 226.963 216.96C229.069 216.202 230.186 216.96 232.481 217.697C233.366 218.12 234.364 218.239 235.324 218.038C236.283 217.836 237.15 217.323 237.788 216.581C241.453 213.527 239.726 212.769 247.223 215.717C245.77 221.383 242.506 237.388 242.443 237.641C241.112 241.874 240.417 246.281 240.379 250.719ZM212.853 214.201C211.202 214.798 209.591 215.5 208.031 216.307C207.673 216.307 207.525 216.307 207.42 215.886C206.767 212.874 214.433 177.22 233.534 175.872C242.253 175.282 248.276 190.93 250.909 199.27C252.641 204.569 253.985 209.991 254.931 215.486C255.31 219.298 244.191 212.158 240.989 212.895C239.726 213.19 239.157 214.264 237.346 215.781C235.535 217.297 234.608 217.297 233.008 216.728C231.118 215.693 228.901 215.421 226.816 215.97C224.584 216.77 222.73 218.645 220.498 219.34C218.603 219.951 218.013 218.645 216.939 216.96C215.865 215.275 214.77 213.843 212.853 214.117V214.201ZM244.233 234.082C245.117 230.586 246.676 223.341 247.834 215.76C249.771 216.518 254.005 218.371 255.416 217.023C255.626 216.798 255.777 216.525 255.858 216.228C255.939 215.93 255.945 215.618 255.879 215.317C255.115 210.872 254.061 206.482 252.72 202.176C249.898 192.804 243.306 174.798 233.492 175.409C213.569 176.799 205.798 212.748 206.472 215.991C206.491 216.2 206.558 216.4 206.669 216.579C206.778 216.758 206.927 216.909 207.104 217.021C207.281 217.132 207.481 217.202 207.69 217.225C207.897 217.248 208.108 217.222 208.304 217.15C209.505 216.855 211.211 215.549 212.769 215.191C213.001 219.024 213.443 224.12 214.37 230.712C210.817 229.315 207.386 227.623 204.113 225.658C197.506 219.24 192.848 211.086 190.677 202.134C189.937 199.205 189.513 196.204 189.413 193.183C193.238 195.319 197.208 197.183 201.291 198.764C201.36 198.791 201.432 198.801 201.505 198.794C201.577 198.787 201.647 198.764 201.709 198.724C201.77 198.685 201.821 198.632 201.86 198.569C201.897 198.508 201.918 198.436 201.923 198.364C202.694 192.414 205.215 186.829 209.168 182.316C213.196 177.853 218.546 174.798 224.436 173.597C224.531 173.582 224.619 173.536 224.687 173.469C224.756 173.401 224.801 173.313 224.817 173.218C224.835 173.123 224.821 173.025 224.779 172.939C224.736 172.852 224.668 172.78 224.584 172.734C220.412 170.326 216.109 168.153 211.695 166.226C208.961 164.956 206.093 163.995 203.145 163.362C203.715 161.791 204.098 160.159 204.282 158.497C208.494 156.707 229.743 159.34 244.064 157.845C246.233 157.71 248.385 157.365 250.488 156.813C263.397 156.455 282.836 172.334 286.416 179.494C289.996 186.655 289.427 195.605 281.488 206.746C274.012 217.171 247.139 232.376 244.254 233.998L244.233 234.082ZM301.537 276.602C304.464 267.378 299.831 258.743 298.167 256.068L312.109 255.689C313.905 256.751 315.273 258.404 315.984 260.365C317.127 263.301 317.734 266.418 317.774 269.568C313.604 271.442 305.875 274.98 301.537 276.518V276.602ZM318.68 268.999C318.564 265.914 317.85 262.881 316.574 260.07C315.729 258.087 314.246 256.441 312.362 255.395C313.202 254.492 314.22 253.774 315.352 253.289C315.352 253.962 314.531 255.395 315.521 255.542C316.511 255.689 316.616 254.721 317.227 254.405C317.479 254.278 317.985 254.257 317.774 254.805C317.564 255.352 317.1 256.174 317.585 256.911C317.941 257.33 318.432 257.613 318.975 257.711C319.101 257.711 318.259 258.301 318.027 258.975C317.973 259.134 317.981 259.308 318.051 259.461C318.122 259.615 318.25 259.734 318.406 259.796C319.122 260.07 320.365 259.354 321.144 260.133C321.46 260.47 321.291 260.786 320.891 261.018C319.922 261.628 319.796 262.344 320.702 263.124C321.156 263.439 321.562 263.824 321.902 264.261C321.24 264.255 320.596 264.471 320.07 264.872C319.97 264.949 319.889 265.047 319.833 265.159C319.776 265.273 319.747 265.398 319.747 265.524C319.747 265.651 319.776 265.775 319.833 265.888C319.889 266.002 319.97 266.1 320.07 266.177C320.533 266.577 321.67 266.999 321.923 267.357C320.921 268.025 319.829 268.55 318.68 268.915V268.999ZM344.226 254.426C343.362 257.943 324.408 266.43 323.06 267.062C322.829 266.24 321.502 265.84 320.954 265.44C321.544 265.124 322.723 265.251 322.955 264.514C323.187 263.776 321.544 262.555 321.165 262.071C321.523 261.734 322.808 261.123 322.239 259.965C321.981 259.529 321.591 259.187 321.125 258.985C320.659 258.785 320.143 258.738 319.649 258.848H319.333C319.796 258.259 320.554 257.501 319.859 256.995C319.164 256.49 318.701 256.995 318.343 256.3C320.344 256.553 321.986 256.827 323.25 257.1C323.292 257.106 323.336 257.104 323.376 257.092C323.416 257.079 323.455 257.058 323.487 257.03C323.518 257.002 323.545 256.967 323.56 256.928C323.578 256.89 323.587 256.848 323.587 256.806C323.587 257.648 322.997 251.941 325.988 251.267C327.323 251.126 328.673 251.316 329.917 251.818C331.163 252.321 332.265 253.123 333.127 254.152C333.176 254.213 333.243 254.261 333.317 254.285C333.392 254.312 333.471 254.317 333.548 254.299C334.327 254.152 340.793 252.825 343.383 253.773C343.678 253.752 344.289 254.047 344.226 254.342V254.426Z" fill="black"/>
</svg>
