<svg width="129" height="116" viewBox="0 0 129 116" fill="none" xmlns="http://www.w3.org/2000/svg">
<path d="M1.73584 75.6104C1.73584 74.9951 1.83105 74.3579 2.02148 73.6987C2.21191 73.0396 2.5415 72.3584 3.01025 71.6553C3.479 70.9375 4.06494 70.3076 4.76807 69.7656C5.48584 69.2236 6.41602 68.7769 7.55859 68.4253C8.70117 68.0591 9.98291 67.876 11.4038 67.876C14.231 67.876 16.5015 68.5571 18.2153 69.9194C19.9292 71.2817 20.7861 73.1128 20.7861 75.4126C20.7861 77.4487 20.2368 79.3677 19.1382 81.1694C18.0542 82.9712 16.0913 85.2271 13.2495 87.937C8.26904 92.7417 5.45654 95.4224 4.81201 95.979L13.667 95.8691C14.707 95.8545 15.5347 95.8179 16.1499 95.7593C16.7798 95.7007 17.3657 95.5981 17.9077 95.4517C18.4644 95.2905 18.8818 95.0635 19.1602 94.7705C19.4385 94.4629 19.6655 94.082 19.8413 93.6279C20.0171 93.1592 20.1343 92.5659 20.1929 91.8481H21.4014L21.1816 100H2.04346V96.8579C3.59619 95.481 5.2002 93.8989 6.85547 92.1118C8.52539 90.3101 9.90967 88.6475 11.0083 87.124C11.8433 85.9668 12.5317 84.8315 13.0737 83.7183C13.6157 82.605 14.0039 81.543 14.2383 80.5322C14.4727 79.5068 14.6191 78.6426 14.6777 77.9395C14.751 77.2217 14.7876 76.4087 14.7876 75.5005C14.7876 73.3765 14.3408 71.7944 13.4473 70.7544C12.5537 69.7144 11.3379 69.1943 9.7998 69.1943C9.06738 69.1943 8.37158 69.3115 7.7124 69.5459C7.06787 69.7656 6.5332 70.0513 6.1084 70.4028C5.68359 70.7544 5.33203 71.106 5.05371 71.4575C4.79004 71.8091 4.60693 72.146 4.50439 72.4683V72.5562C4.62158 72.5415 4.79736 72.5342 5.03174 72.5342C5.98389 72.5342 6.75293 72.8345 7.33887 73.4351C7.9248 74.021 8.21777 74.79 8.21777 75.7422C8.21777 76.6504 7.9248 77.4048 7.33887 78.0054C6.75293 78.606 5.98389 78.9062 5.03174 78.9062C4.00635 78.9062 3.20068 78.5913 2.61475 77.9614C2.02881 77.3169 1.73584 76.5332 1.73584 75.6104ZM25.2905 75.6104C25.2905 74.9951 25.3857 74.3579 25.5762 73.6987C25.7666 73.0396 26.0962 72.3584 26.5649 71.6553C27.0337 70.9375 27.6196 70.3076 28.3228 69.7656C29.0405 69.2236 29.9707 68.7769 31.1133 68.4253C32.2559 68.0591 33.5376 67.876 34.9585 67.876C37.7856 67.876 40.0562 68.5571 41.77 69.9194C43.4839 71.2817 44.3408 73.1128 44.3408 75.4126C44.3408 77.4487 43.7915 79.3677 42.6929 81.1694C41.6089 82.9712 39.646 85.2271 36.8042 87.937C31.8237 92.7417 29.0112 95.4224 28.3667 95.979L37.2217 95.8691C38.2617 95.8545 39.0894 95.8179 39.7046 95.7593C40.3345 95.7007 40.9204 95.5981 41.4624 95.4517C42.019 95.2905 42.4365 95.0635 42.7148 94.7705C42.9932 94.4629 43.2202 94.082 43.396 93.6279C43.5718 93.1592 43.689 92.5659 43.7476 91.8481H44.9561L44.7363 100H25.5981V96.8579C27.1509 95.481 28.7549 93.8989 30.4102 92.1118C32.0801 90.3101 33.4644 88.6475 34.563 87.124C35.3979 85.9668 36.0864 84.8315 36.6284 83.7183C37.1704 82.605 37.5586 81.543 37.793 80.5322C38.0273 79.5068 38.1738 78.6426 38.2324 77.9395C38.3057 77.2217 38.3423 76.4087 38.3423 75.5005C38.3423 73.3765 37.8955 71.7944 37.002 70.7544C36.1084 69.7144 34.8926 69.1943 33.3545 69.1943C32.6221 69.1943 31.9263 69.3115 31.2671 69.5459C30.6226 69.7656 30.0879 70.0513 29.6631 70.4028C29.2383 70.7544 28.8867 71.106 28.6084 71.4575C28.3447 71.8091 28.1616 72.146 28.0591 72.4683V72.5562C28.1763 72.5415 28.3521 72.5342 28.5864 72.5342C29.5386 72.5342 30.3076 72.8345 30.8936 73.4351C31.4795 74.021 31.7725 74.79 31.7725 75.7422C31.7725 76.6504 31.4795 77.4048 30.8936 78.0054C30.3076 78.606 29.5386 78.9062 28.5864 78.9062C27.561 78.9062 26.7554 78.5913 26.1694 77.9614C25.5835 77.3169 25.2905 76.5332 25.2905 75.6104ZM47.3291 92.749V91.7163L64.0723 67.876H65.2808V91.5625L70.9058 91.4966V92.749H65.2808V98.7915L68.6646 99.0112V100H56.5137V99.0112L59.8755 98.7915V92.749H47.3291ZM48.9551 91.7163L59.8755 91.6064V76.0278H59.8096L48.9551 91.6504V91.7163Z" fill="#2E2E2C"/>
<path d="M17.7578 29.5488L18.0508 15.1934H50.043L50.3359 29.5195H48.7246C48.4512 28.0156 48.207 26.8047 47.9922 25.8867C47.7969 24.9688 47.5527 24.002 47.2598 22.9863C46.9668 21.9707 46.6641 21.1797 46.3516 20.6133C46.0391 20.0469 45.6582 19.4805 45.209 18.9141C44.7598 18.3477 44.2422 17.9375 43.6562 17.6836C43.0898 17.4102 42.4258 17.1953 41.6641 17.0391C40.9023 16.8633 40.0234 16.7754 39.0273 16.7754C38.9492 16.7754 38.7832 16.7852 38.5293 16.8047C38.2949 16.8047 38.0801 16.8047 37.8848 16.8047V55.3887L42.4258 55.6816V57H25.9023V55.6816L30.3848 55.3887L30.209 16.834C30.0137 16.834 29.7891 16.834 29.5352 16.834C29.3008 16.8145 29.1445 16.8047 29.0664 16.8047C28.1875 16.8047 27.4062 16.8535 26.7227 16.9512C26.0391 17.0488 25.4141 17.2344 24.8477 17.5078C24.3008 17.7812 23.8223 18.0742 23.4121 18.3867C23.002 18.6992 22.6211 19.1484 22.2695 19.7344C21.918 20.3203 21.6152 20.8867 21.3613 21.4336C21.127 21.9805 20.873 22.7324 20.5996 23.6895C20.3457 24.627 19.9355 26.5801 19.3691 29.5488H17.7578ZM53.7637 29.9297V28.7285L59.8867 28.084L64.0176 27L64.5449 27.8496V55.5059L67.5625 55.7988V57H54.3496V55.7988L57.3672 55.5059V29.9297H53.7637ZM56.957 16.5996C56.957 16.0527 57.0547 15.5449 57.25 15.0762C57.4648 14.6074 57.748 14.1973 58.0996 13.8457C58.4512 13.4941 58.8613 13.2207 59.3301 13.0254C59.7988 12.8301 60.2969 12.7324 60.8242 12.7324C61.3516 12.7324 61.8496 12.8398 62.3184 13.0547C62.7871 13.25 63.1973 13.5234 63.5488 13.875C63.9199 14.2266 64.2031 14.6367 64.3984 15.1055C64.6133 15.5742 64.7207 16.0723 64.7207 16.5996C64.7207 17.127 64.6133 17.625 64.3984 18.0938C64.2031 18.5625 63.9297 18.9824 63.5781 19.3535C63.2266 19.7051 62.8164 19.9883 62.3477 20.2031C61.8789 20.3984 61.3711 20.4961 60.8242 20.4961C60.2773 20.4961 59.7695 20.3984 59.3008 20.2031C58.832 19.9883 58.4219 19.7051 58.0703 19.3535C57.7188 19.002 57.4453 18.5918 57.25 18.123C57.0547 17.6543 56.957 17.1465 56.957 16.5996ZM70.6094 29.9297V28.7285L76.7324 28.084L80.8633 27L81.2734 27.8496V31.6582H81.3906C82.5039 29.7637 83.6758 28.4648 84.9062 27.7617C86.1367 27.0586 87.6113 26.707 89.3301 26.707C89.7793 26.707 90.2578 26.7559 90.7656 26.8535C91.2734 26.9512 91.8594 27.1465 92.5234 27.4395C93.207 27.7129 93.8613 28.0742 94.4863 28.5234C95.1113 28.9727 95.7266 29.5977 96.332 30.3984C96.957 31.1992 97.4941 32.1172 97.9434 33.1523C98.3926 34.168 98.7539 35.4375 99.0273 36.9609C99.3203 38.4844 99.4668 40.1641 99.4668 42C99.4668 44.207 99.1934 46.2578 98.6465 48.1523C98.0996 50.0273 97.2988 51.6973 96.2441 53.1621C95.1895 54.627 93.8027 55.7793 92.084 56.6191C90.3652 57.459 88.4023 57.8789 86.1953 57.8789C84.2617 57.8789 82.6602 57.3809 81.3906 56.3848V69.4219L84.4082 69.7148V70.916H71.1953V69.7148L74.2129 69.4219V29.9297H70.6094ZM81.3906 54.832C82.5039 55.8281 83.7051 56.3262 84.9941 56.3262C85.9316 56.3262 86.7617 56.1406 87.4844 55.7695C88.2266 55.3984 88.832 54.9395 89.3008 54.3926C89.7891 53.8457 90.209 53.1328 90.5605 52.2539C90.9121 51.3555 91.1758 50.5156 91.3516 49.7344C91.5273 48.9336 91.6641 47.9863 91.7617 46.8926C91.8594 45.7988 91.918 44.8906 91.9375 44.168C91.957 43.4453 91.9668 42.5859 91.9668 41.5898C91.9668 38.4258 91.7422 35.8965 91.293 34.002C90.8438 32.0879 90.2578 30.7891 89.5352 30.1055C88.8125 29.4023 87.9043 29.0508 86.8105 29.0508C85.2871 29.0508 83.998 29.8516 82.9434 31.4531C81.9082 33.0547 81.3906 34.8516 81.3906 36.8438V54.832ZM114.174 56.4434C116.4 56.4434 118.041 56.0332 119.096 55.2129C120.17 54.3926 120.707 53.3672 120.707 52.1367C120.707 51.4922 120.6 50.9258 120.385 50.4375C120.189 49.9297 119.857 49.4512 119.389 49.002C118.939 48.5332 118.334 48.0645 117.572 47.5957C116.83 47.1074 115.902 46.5605 114.789 45.9551C113.812 45.3887 112.777 44.8027 111.684 44.1973C110.59 43.5723 109.574 42.8594 108.637 42.0586C107.719 41.2383 106.947 40.291 106.322 39.2168C105.717 38.1426 105.414 36.8535 105.414 35.3496C105.414 34.0215 105.668 32.8203 106.176 31.7461C106.684 30.6719 107.387 29.7637 108.285 29.0215C109.203 28.2598 110.287 27.6738 111.537 27.2637C112.807 26.8535 114.193 26.6484 115.697 26.6484C116.83 26.6484 117.963 26.7949 119.096 27.0879C120.248 27.3613 121.283 27.7812 122.201 28.3477C123.119 28.9141 123.861 29.6172 124.428 30.457C124.994 31.2969 125.277 32.2734 125.277 33.3867C125.277 33.8164 125.199 34.2363 125.043 34.6465C124.906 35.0566 124.691 35.4277 124.398 35.7598C124.105 36.0918 123.744 36.3652 123.314 36.5801C122.904 36.7754 122.426 36.873 121.879 36.873C120.746 36.873 119.896 36.5605 119.33 35.9355C118.764 35.3105 118.48 34.5488 118.48 33.6504C118.48 33.084 118.559 32.6055 118.715 32.2148C118.871 31.8047 119.076 31.4727 119.33 31.2188C119.604 30.9453 119.906 30.75 120.238 30.6328C120.59 30.4961 120.941 30.4277 121.293 30.4277H121.557V30.3691C121.361 30.0566 121.078 29.7637 120.707 29.4902C120.336 29.1973 119.896 28.9434 119.389 28.7285C118.881 28.4941 118.314 28.3086 117.689 28.1719C117.064 28.0352 116.4 27.9668 115.697 27.9668C114.662 27.9668 113.783 28.1035 113.061 28.377C112.338 28.6504 111.742 29.002 111.273 29.4316C110.824 29.8418 110.492 30.3008 110.277 30.8086C110.062 31.3164 109.955 31.8047 109.955 32.2734C109.955 32.8398 110.043 33.3281 110.219 33.7383C110.395 34.1484 110.697 34.5684 111.127 34.998C111.576 35.4082 112.182 35.8574 112.943 36.3457C113.725 36.834 114.701 37.4199 115.873 38.1035C117.006 38.6895 118.197 39.3145 119.447 39.9785C120.717 40.6426 121.879 41.4141 122.934 42.293C123.988 43.1523 124.857 44.1484 125.541 45.2812C126.244 46.3945 126.596 47.7031 126.596 49.207C126.596 50.4766 126.352 51.6387 125.863 52.6934C125.395 53.748 124.652 54.6562 123.637 55.418C122.641 56.1797 121.361 56.7656 119.799 57.1758C118.256 57.6055 116.42 57.8203 114.291 57.8203C113.275 57.8203 112.191 57.6934 111.039 57.4395C109.887 57.1855 108.822 56.7852 107.846 56.2383C106.869 55.6719 106.059 54.9492 105.414 54.0703C104.77 53.1719 104.447 52.0781 104.447 50.7891C104.447 50.2422 104.535 49.7148 104.711 49.207C104.887 48.6992 105.131 48.25 105.443 47.8594C105.775 47.4492 106.176 47.127 106.645 46.8926C107.113 46.6582 107.65 46.541 108.256 46.541C108.783 46.541 109.252 46.6387 109.662 46.834C110.072 47.0098 110.414 47.2539 110.688 47.5664C110.98 47.8594 111.205 48.2109 111.361 48.6211C111.518 49.0312 111.605 49.4707 111.625 49.9395C111.625 50.4863 111.527 50.9746 111.332 51.4043C111.137 51.8145 110.883 52.1562 110.57 52.4297C110.258 52.7031 109.896 52.918 109.486 53.0742C109.096 53.2109 108.705 53.2793 108.314 53.2793C108.236 53.2793 108.148 53.2793 108.051 53.2793C107.973 53.2793 107.895 53.2695 107.816 53.25V53.3086C107.992 53.6992 108.256 54.0801 108.607 54.4512C108.959 54.8223 109.398 55.1543 109.926 55.4473C110.473 55.7402 111.098 55.9844 111.801 56.1797C112.523 56.3555 113.314 56.4434 114.174 56.4434Z" fill="#5FA09C"/>
</svg>
