<svg width="28" height="24" viewBox="0 0 28 24" fill="none" xmlns="http://www.w3.org/2000/svg">
<path d="M16.4138 23.1724C18.7053 23.1724 20.9454 22.4929 22.8507 21.2198C24.7561 19.9467 26.2411 18.1372 27.1181 16.0201C27.995 13.903 28.2244 11.5734 27.7774 9.32586C27.3303 7.07835 26.2268 5.01389 24.6065 3.39353C22.9861 1.77317 20.9217 0.669687 18.6741 0.222631C16.4266 -0.224425 14.097 0.00502014 11.9799 0.881953C9.86284 1.75889 8.05332 3.24392 6.78021 5.14926C5.50711 7.0546 4.82759 9.29468 4.82759 11.5862V17.5724L1.35172 14.0966L0 15.4483L5.7931 21.2414L11.5862 15.4483L10.2345 14.0966L6.75862 17.5724V11.5862C6.75862 9.6766 7.32489 7.80987 8.38581 6.22209C9.44673 4.6343 10.9547 3.39677 12.7189 2.666C14.4832 1.93522 16.4245 1.74401 18.2974 2.11656C20.1703 2.48911 21.8907 3.40867 23.241 4.75897C24.5913 6.10927 25.5109 7.82966 25.8834 9.70258C26.256 11.5755 26.0648 13.5168 25.334 15.2811C24.6032 17.0453 23.3657 18.5533 21.7779 19.6142C20.1901 20.6751 18.3234 21.2414 16.4138 21.2414V23.1724Z" fill="white"/>
</svg>
